{"glyphs":{"0":{"ha":767,"x_min":-44,"x_max":733,"o":"m 733 672 q 708 530 733 606 q 638 379 682 454 q 533 235 593 304 q 408 113 474 167 q 272 28 342 60 q 138 -3 203 -3 q 1 51 46 -3 q -44 197 -44 104 q -22 335 -44 256 q 40 499 1 414 q 132 669 79 585 q 244 819 185 753 q 367 926 304 885 q 492 967 431 967 q 597 942 551 967 q 673 878 643 918 q 718 784 703 838 q 733 672 733 731 m 88 132 l 119 118 q 238 151 178 122 q 353 226 297 179 q 457 331 408 272 q 542 455 506 390 q 599 586 578 519 q 619 713 619 653 q 602 809 619 778 q 557 847 585 840 q 495 840 529 853 q 427 802 461 826 q 363 748 393 778 q 314 692 333 718 q 229 561 271 631 q 154 423 188 492 q 101 291 121 354 q 81 181 81 228 q 88 132 81 153 z "},"1":{"ha":431,"x_min":-94,"x_max":651,"o":"m 240 600 q 209 624 222 610 q 196 657 196 638 l 210 690 q 249 726 219 700 q 319 783 279 751 q 404 850 360 815 q 488 913 449 885 q 555 960 526 942 q 590 979 583 979 q 633 962 614 979 q 651 921 651 944 q 631 866 651 890 q 593 819 611 842 q 492 694 539 753 q 399 576 444 635 q 306 458 353 518 q 208 329 260 397 q 99 171 144 250 q 1 8 53 92 q -27 -17 -10 -12 q -60 -14 -44 -21 q -85 9 -75 -7 q -89 46 -94 25 q -62 128 -83 81 q -12 227 -42 175 q 54 334 18 279 q 125 439 90 389 q 190 531 160 489 q 240 600 221 574 z "},"2":{"ha":928,"x_min":-118,"x_max":858,"o":"m 249 114 q 188 76 221 97 q 119 37 154 56 q 49 6 85 18 q -22 -7 13 -7 q -90 24 -62 -7 q -118 93 -118 54 q -101 163 -118 122 q -57 246 -85 203 q 7 331 -29 289 q 81 405 43 372 q 156 458 118 438 q 222 478 193 478 q 260 463 243 478 q 288 426 276 447 q 307 381 299 404 q 319 342 315 357 q 402 403 356 361 q 496 499 449 446 q 585 610 543 551 q 654 721 626 668 q 683 792 679 768 q 675 821 688 815 q 635 817 663 826 q 571 788 608 807 q 484 736 526 764 q 408 685 442 708 q 351 645 374 661 q 325 629 329 629 q 293 644 306 629 q 281 674 281 658 q 307 733 281 701 q 374 797 333 765 q 466 856 415 828 q 566 906 517 885 q 658 941 615 928 q 725 954 700 954 q 797 926 767 954 q 826 857 826 899 q 799 755 826 813 q 727 633 771 697 q 628 501 683 568 q 517 374 572 435 q 413 263 463 314 q 332 179 364 213 q 406 122 365 132 q 491 123 447 111 q 579 163 535 135 q 663 222 624 190 q 733 281 701 253 q 785 319 765 308 q 816 325 800 328 q 842 313 832 322 q 856 289 853 303 q 849 260 858 275 q 756 165 813 210 q 638 88 700 121 q 514 35 575 54 q 410 17 453 17 q 324 41 361 17 q 249 114 286 65 m 8 117 q 57 146 31 131 q 108 179 83 161 q 151 217 132 197 q 178 263 169 238 q 176 319 194 311 q 119 296 158 328 q 54 222 85 268 q 8 117 24 175 z "},"3":{"ha":810,"x_min":-37,"x_max":817,"o":"m 542 529 q 585 485 563 507 q 625 439 607 463 q 655 388 643 415 q 667 328 667 360 q 630 201 667 258 q 533 100 593 143 q 399 31 474 57 q 250 0 325 4 q 107 15 175 -4 q -7 79 39 33 q -37 144 -37 110 q -28 179 -37 163 q -6 208 -19 196 q 26 228 8 221 q 60 235 43 235 q 88 228 78 235 q 103 210 97 221 q 113 186 110 200 q 118 158 115 172 q 191 129 149 135 q 278 133 233 124 q 369 162 324 142 q 449 210 414 182 q 506 272 485 238 q 528 342 528 306 q 501 397 528 375 q 444 438 475 419 q 386 478 413 457 q 360 531 360 499 q 382 569 360 549 q 438 611 404 589 q 513 656 472 633 q 589 703 553 679 q 669 788 672 758 q 568 818 665 818 q 474 806 522 818 q 385 778 425 793 q 316 752 344 764 q 281 740 288 740 q 235 751 256 740 q 215 792 215 763 q 238 835 215 815 q 294 870 260 854 q 371 897 329 886 q 453 916 413 908 q 528 927 494 924 q 581 931 563 931 q 650 928 610 931 q 728 913 690 925 q 791 878 765 901 q 817 814 817 854 q 785 729 817 771 q 710 650 754 688 q 619 581 667 613 q 542 529 572 550 z "},"4":{"ha":764,"x_min":-39,"x_max":844,"o":"m 403 301 q 303 297 350 301 q 211 285 256 292 q 124 273 167 279 q 38 263 81 267 q 1 269 21 260 q -28 298 -18 279 q -34 344 -39 317 q 0 403 -29 371 q 101 506 40 446 q 232 628 163 565 q 372 754 301 692 q 501 865 443 817 q 600 944 560 914 q 649 975 640 975 q 680 962 667 975 q 693 929 693 949 q 671 876 693 908 q 613 802 649 843 q 531 717 576 761 q 438 628 485 672 q 347 544 390 585 q 271 475 303 504 q 239 444 254 460 q 217 415 224 428 q 215 393 210 401 q 244 388 219 385 q 353 392 293 390 q 461 396 413 393 q 498 449 475 415 q 550 522 521 482 q 612 601 579 561 q 677 674 644 642 q 740 728 710 707 q 794 749 771 749 q 831 737 819 749 q 843 708 842 725 q 835 674 844 692 q 813 644 826 657 q 685 510 754 588 q 556 345 615 432 q 458 169 497 258 q 418 1 418 81 q 401 -29 418 -18 q 367 -40 383 -40 q 314 -18 329 -40 q 299 38 299 4 q 310 113 299 72 q 337 192 321 154 q 371 260 353 231 q 403 301 389 290 z "},"5":{"ha":715,"x_min":-25,"x_max":946,"o":"m 389 810 q 347 751 374 786 q 292 676 319 715 q 240 599 264 638 q 208 533 217 561 q 333 531 269 538 q 448 501 396 525 q 533 433 500 478 q 565 317 565 389 q 535 190 565 250 q 454 85 504 131 q 341 13 404 39 q 214 -14 278 -14 q 151 -10 190 -14 q 72 5 111 -6 q 3 35 32 15 q -25 86 -25 54 q -9 127 -25 108 q 31 146 7 146 q 61 140 46 146 q 93 126 76 133 q 126 113 110 119 q 160 107 143 107 q 269 128 217 107 q 360 181 321 149 q 424 251 400 213 q 447 326 447 290 q 428 389 447 365 q 381 424 410 413 q 315 436 351 435 q 242 433 278 438 q 174 422 206 429 q 122 410 142 415 q 76 403 97 403 q 40 419 57 403 q 24 457 24 435 q 46 510 24 471 q 103 602 68 550 q 178 712 138 654 q 258 817 219 769 q 327 897 297 865 q 369 929 357 928 q 623 956 492 940 q 876 971 754 971 q 924 963 903 971 q 946 924 946 956 q 910 890 946 906 q 820 863 875 875 q 699 842 765 851 q 570 827 632 833 q 459 817 508 821 q 389 810 410 813 z "},"6":{"ha":796,"x_min":-18,"x_max":689,"o":"m 304 133 q 325 249 304 189 q 383 358 346 310 q 472 439 421 407 q 585 471 524 471 q 659 447 629 471 q 689 378 689 424 q 665 288 689 332 q 602 202 642 243 q 513 126 563 161 q 410 65 463 90 q 306 24 357 39 q 213 10 254 10 q 115 30 158 10 q 43 85 72 50 q -2 165 14 119 q -18 263 -18 211 q 11 388 -18 317 q 89 535 40 460 q 200 684 138 611 q 328 815 263 757 q 459 908 394 872 q 576 943 524 943 q 627 926 603 943 q 651 881 651 908 q 641 844 651 863 q 611 825 631 826 q 504 788 561 819 q 392 709 447 757 q 285 601 336 661 q 194 477 233 540 q 132 353 156 414 q 108 243 108 293 q 126 174 108 201 q 171 135 143 147 q 233 122 199 122 q 304 133 268 122 m 497 310 q 459 260 474 289 q 435 204 444 232 q 488 237 463 219 q 535 276 513 254 q 565 316 560 301 q 561 335 569 331 q 535 334 553 340 q 497 310 518 328 z "},"7":{"ha":808,"x_min":6,"x_max":904,"o":"m 258 336 q 151 327 208 332 q 46 325 94 322 q 16 342 26 326 q 7 376 6 357 q 26 405 8 393 q 72 424 44 417 q 132 434 99 431 q 197 438 165 438 q 253 439 228 439 q 289 439 278 439 q 383 472 335 440 q 478 550 431 504 q 569 647 525 596 q 653 740 614 699 q 687 781 672 761 q 705 814 701 800 q 697 834 708 828 q 650 835 685 840 q 566 817 608 828 q 483 797 524 807 q 403 781 443 788 q 325 776 363 775 q 297 778 311 776 q 270 786 282 781 q 251 803 258 792 q 246 832 244 814 q 257 860 247 847 q 286 876 267 874 q 412 900 342 888 q 556 923 482 913 q 699 939 629 933 q 826 942 769 944 q 879 925 854 939 q 901 879 904 911 q 876 825 900 860 q 817 748 853 790 q 738 660 782 706 q 653 572 694 614 q 579 495 613 529 q 531 442 546 461 q 573 441 543 440 q 634 437 603 442 q 688 419 665 432 q 710 379 711 406 q 682 350 708 358 q 622 341 656 342 q 554 343 588 340 q 504 347 521 346 q 413 317 456 350 q 333 237 369 285 q 266 135 297 189 q 210 43 235 82 q 176 5 190 11 q 146 0 163 -1 q 103 16 126 1 q 78 50 81 31 q 91 110 75 74 q 133 185 107 146 q 192 265 158 225 q 258 336 225 304 z "},"8":{"ha":658,"x_min":-28,"x_max":831,"o":"m 251 521 q 233 574 242 550 q 220 623 225 599 q 215 674 215 647 q 224 733 215 700 q 285 851 240 799 q 391 938 331 903 q 519 988 451 974 q 646 993 586 1003 q 704 969 683 986 q 734 926 725 951 q 743 871 743 901 q 739 808 743 840 q 778 793 760 801 q 808 772 796 785 q 826 742 821 760 q 825 697 831 724 q 807 665 818 672 q 782 661 796 658 q 754 671 768 664 q 728 681 740 678 q 688 674 713 683 q 633 647 663 664 q 570 609 603 631 q 508 566 538 588 q 453 526 478 544 q 417 496 429 507 q 451 429 433 467 q 481 351 468 392 q 499 269 494 310 q 496 193 504 229 q 439 99 483 140 q 337 29 394 57 q 219 -10 279 1 q 114 -15 158 -22 q 52 4 81 -10 q 5 40 24 18 q -21 93 -14 63 q -18 163 -28 124 q 24 259 -7 210 q 94 355 54 308 q 176 444 133 401 q 251 521 218 486 m 321 415 q 263 363 297 396 q 196 293 229 331 q 137 218 163 256 q 104 151 111 181 q 115 115 99 126 q 162 103 132 104 q 228 111 192 103 q 297 135 264 119 q 354 170 329 150 q 385 214 379 190 q 387 267 390 239 q 374 322 383 294 q 351 373 365 349 q 321 415 336 397 m 349 601 l 572 750 q 623 794 606 771 q 642 838 640 817 q 634 873 644 858 q 601 892 624 888 q 525 887 568 897 q 442 855 482 876 q 370 802 401 833 q 331 733 339 771 q 329 666 322 700 q 349 601 336 632 z "},"9":{"ha":681,"x_min":44,"x_max":739,"o":"m 351 565 q 544 658 433 592 q 596 685 568 674 q 647 692 624 697 q 680 663 668 688 q 685 614 692 638 q 663 577 679 593 q 632 546 647 561 q 447 371 532 485 q 297 113 361 257 q 278 67 286 94 q 258 13 269 39 q 232 -31 247 -14 q 192 -42 217 -47 q 159 -25 169 -37 q 145 3 149 -12 q 144 33 142 18 q 150 58 147 49 q 200 179 167 117 q 274 302 233 242 q 358 417 314 363 q 439 514 401 471 q 381 487 421 500 q 294 467 342 474 q 199 464 247 461 q 115 483 151 467 q 62 531 79 499 q 60 617 44 564 q 109 699 71 657 q 201 778 147 740 q 318 847 254 815 q 444 901 382 879 q 561 932 506 922 q 656 936 617 942 q 713 910 693 929 q 736 872 733 892 q 724 838 739 853 q 678 822 708 822 q 658 826 667 822 q 642 833 650 831 q 554 832 603 842 q 455 801 506 822 q 356 752 404 781 q 268 694 307 724 q 201 625 218 658 q 194 572 183 592 q 246 547 206 551 q 351 565 286 543 z "},"\u0000":{"ha":0,"x_min":0,"x_max":0,"o":""},"\r":{"ha":406,"x_min":0,"x_max":0,"o":""}," ":{"ha":406,"x_min":0,"x_max":0,"o":""},"~":{"ha":690,"x_min":60,"x_max":554,"o":"m 272 442 q 243 419 264 435 q 197 388 222 404 q 148 356 172 371 q 110 335 124 340 q 85 336 97 331 q 67 353 74 342 q 60 380 60 365 q 74 408 61 394 q 123 453 93 431 q 186 496 153 476 q 251 528 219 515 q 304 540 282 540 q 338 528 325 540 q 360 499 351 517 q 375 462 369 482 q 385 426 381 442 q 446 439 417 426 q 503 463 475 451 q 533 460 521 468 q 549 440 544 453 q 551 412 554 426 q 536 390 547 397 q 458 351 499 367 q 374 336 418 336 q 335 346 350 336 q 308 372 319 356 q 288 406 296 388 q 272 442 281 425 z "},"¤":{"ha":883,"x_min":-11,"x_max":814,"o":"m 178 606 q 146 632 164 617 q 109 663 128 647 q 74 694 90 678 q 49 724 58 710 q 40 751 39 738 q 48 773 40 764 q 69 785 56 782 q 97 782 82 788 q 133 762 114 775 q 171 733 151 749 q 209 702 190 718 q 243 675 228 686 q 269 713 257 693 q 299 747 282 732 q 380 799 339 786 q 458 809 421 813 q 528 792 496 806 q 587 765 561 778 q 631 742 613 751 q 656 740 649 733 q 678 767 668 753 q 698 795 688 781 q 720 822 708 810 q 747 843 732 835 q 781 850 765 853 q 804 836 796 847 q 813 809 813 825 q 804 776 814 793 q 767 728 789 750 q 725 683 744 706 l 726 660 q 742 633 733 646 q 757 607 750 621 q 771 528 778 564 q 742 460 764 492 q 690 402 721 429 q 631 349 660 375 q 652 316 639 335 q 678 277 665 297 q 699 238 690 257 q 708 203 708 218 q 701 167 708 182 q 681 145 693 151 q 653 143 668 139 q 624 168 638 147 q 588 229 604 196 q 553 293 571 263 q 465 251 508 272 q 378 218 422 229 q 289 210 335 207 q 196 242 243 214 q 158 214 175 232 q 125 175 140 196 q 96 133 110 154 q 65 94 82 111 q 34 76 50 78 q 7 83 18 75 q -8 106 -4 90 q -1 139 -11 121 q 62 229 26 188 q 132 314 97 271 q 132 383 132 356 q 133 430 132 410 q 138 465 135 450 q 147 499 142 481 q 159 542 151 517 q 178 606 167 567 m 347 651 q 310 597 329 624 q 275 542 292 569 q 245 470 256 508 q 239 393 235 432 q 270 326 243 343 q 335 315 297 310 q 419 341 374 319 q 507 390 465 363 q 581 444 549 417 q 629 489 614 472 q 657 560 660 525 q 630 623 654 594 q 567 672 606 651 q 486 697 528 692 q 407 693 444 703 q 347 651 369 683 z "},"`":{"ha":374,"x_min":64,"x_max":311,"o":"m 303 850 q 308 824 311 836 q 295 803 306 811 q 271 795 285 796 q 243 803 257 794 q 218 829 242 803 q 165 888 194 856 q 111 947 136 919 q 83 978 86 974 q 68 1020 64 1003 q 87 1047 72 1038 q 120 1056 101 1056 q 151 1044 139 1056 q 235 952 200 1000 q 303 850 271 904 z "},"?":{"ha":724,"x_min":4,"x_max":776,"o":"m 579 910 q 495 911 539 914 q 406 900 451 908 q 318 879 361 892 q 238 851 275 867 q 201 824 214 842 q 175 788 188 806 q 147 759 163 771 q 101 751 131 747 q 60 770 81 754 q 43 811 40 786 q 88 886 47 853 q 186 944 128 919 q 313 985 244 969 q 444 1010 382 1001 q 547 1015 488 1015 q 658 999 606 1014 q 743 950 710 983 q 769 857 776 917 q 725 751 763 797 q 633 666 688 704 q 515 593 578 628 q 392 522 451 558 q 286 442 333 485 q 218 344 239 399 q 167 315 203 311 q 142 326 151 317 q 128 347 133 335 q 122 374 124 360 q 122 399 121 388 q 153 479 128 442 q 215 550 178 517 q 299 613 253 583 q 394 669 346 642 q 487 722 442 696 q 568 774 532 747 q 611 812 590 790 q 640 853 632 833 q 635 890 647 874 q 579 910 624 906 m 56 54 q 19 76 33 57 q 7 115 4 94 q 31 152 10 138 q 76 164 51 167 q 108 146 92 161 q 122 111 125 131 q 99 70 119 89 q 56 54 78 51 z "},"_":{"ha":669,"x_min":-29,"x_max":500,"o":"m 38 235 q 210 242 143 239 q 322 249 278 246 q 391 253 365 251 q 439 254 417 254 q 481 244 465 254 q 498 221 496 235 q 489 192 500 207 q 453 169 478 178 q 410 162 440 165 q 342 156 381 158 q 259 150 303 153 q 175 146 215 147 q 102 144 135 144 q 53 143 69 143 q -3 158 17 143 q -26 189 -22 172 q -14 220 -29 206 q 38 235 1 235 z "},"]":{"ha":551,"x_min":-200,"x_max":669,"o":"m 368 1085 q 338 1085 353 1086 q 310 1089 324 1085 q 282 1108 290 1094 q 276 1136 274 1121 q 291 1165 278 1151 q 328 1182 304 1178 q 397 1191 358 1188 q 474 1196 435 1194 q 550 1198 513 1197 q 618 1197 588 1199 q 657 1146 669 1196 q 610 1017 642 1083 q 551 892 578 951 q 374 474 464 682 q 201 54 283 265 q 183 -2 190 25 q 176 -56 175 -29 q 179 -83 178 -71 q 178 -106 181 -96 q 165 -122 175 -115 q 132 -131 154 -128 q 101 -131 125 -132 q 44 -131 78 -131 q -26 -129 11 -131 q -97 -127 -64 -128 q -152 -125 -129 -126 q -179 -122 -175 -124 q -194 -104 -189 -114 q -200 -85 -200 -94 q -193 -66 -200 -75 q -169 -53 -186 -57 q -114 -43 -147 -46 q -45 -38 -81 -40 q 25 -35 -10 -36 q 85 -31 60 -33 q 182 250 128 111 q 294 527 236 389 q 413 803 353 665 q 526 1079 472 940 l 368 1085 z "},"\\":{"ha":503,"x_min":-94,"x_max":360,"o":"m 283 -42 q 238 118 256 38 q 201 278 221 199 q 110 599 161 446 q 0 903 58 753 q -30 972 -17 943 q -50 1010 -43 1000 q -60 1019 -57 1018 q -67 1022 -64 1021 q -74 1024 -71 1022 q -83 1033 -78 1026 q -94 1058 -94 1044 q -88 1082 -94 1071 q -70 1101 -82 1093 q -43 1108 -58 1108 q -9 1101 -22 1111 q 15 1071 4 1090 q 174 728 103 917 q 300 301 244 540 q 310 260 303 288 q 324 200 317 233 q 338 131 331 167 q 351 63 346 94 q 358 6 356 31 q 357 -29 360 -19 q 324 -58 347 -56 q 283 -42 300 -60 z "},"[":{"ha":392,"x_min":-167,"x_max":703,"o":"m -24 -12 l 135 -18 q 165 -19 150 -19 q 193 -22 179 -18 q 221 -41 213 -28 q 227 -69 229 -54 q 212 -98 225 -85 q 175 -115 199 -111 q 106 -124 143 -121 q 29 -129 68 -128 q -47 -131 -10 -131 q -115 -131 -85 -132 q -154 -79 -167 -129 q -107 49 -139 -17 q -49 175 -75 115 q 129 593 39 385 q 301 1013 219 801 q 320 1069 313 1042 q 326 1122 328 1096 q 324 1150 325 1138 q 325 1172 322 1163 q 338 1188 328 1182 q 371 1197 349 1194 q 401 1197 376 1197 q 458 1197 425 1197 q 529 1196 492 1197 q 599 1193 567 1194 q 655 1191 632 1192 q 682 1189 678 1190 q 697 1171 692 1181 q 703 1151 703 1161 q 696 1133 703 1142 q 672 1119 689 1124 q 616 1110 649 1113 q 548 1105 583 1107 q 478 1101 513 1103 q 418 1097 443 1100 q 319 817 374 956 q 207 540 265 678 q 90 264 149 401 q -24 -12 31 126 z "},"Z":{"ha":883,"x_min":-200,"x_max":1079,"o":"m 171 193 q 420 235 290 218 q 668 251 550 251 q 706 238 692 251 q 721 203 721 225 q 710 172 721 183 q 685 152 700 160 q 653 142 671 144 q 621 138 635 139 q 438 119 517 126 q 287 101 360 113 q 137 66 214 89 q -42 1 60 43 q -62 -8 -49 -1 q -90 -20 -75 -14 q -117 -31 -104 -26 q -135 -35 -129 -35 q -181 -18 -161 -35 q -200 26 -200 -1 q -161 90 -200 46 q -58 194 -122 135 q 88 326 6 254 q 259 470 171 397 q 434 613 347 543 q 593 738 521 682 q 717 833 665 794 q 785 883 768 872 q 643 857 721 876 q 485 818 565 838 q 328 783 404 799 q 189 768 251 768 q 153 783 169 768 q 138 817 138 797 q 148 848 138 836 q 176 867 158 860 q 257 890 194 875 q 405 924 319 906 q 588 960 490 942 q 774 992 686 978 q 928 1017 861 1007 q 1021 1026 996 1026 q 1063 1009 1046 1026 q 1079 969 1079 992 q 1067 935 1079 950 q 1040 910 1056 919 q 938 843 988 875 q 838 779 888 811 q 739 713 788 747 q 642 639 690 678 q 522 544 585 593 q 396 446 458 496 q 273 344 333 396 q 161 239 213 292 q 145 219 153 229 q 137 202 138 210 q 143 192 136 194 q 171 193 150 189 z "},"Y":{"ha":643,"x_min":1,"x_max":919,"o":"m 264 401 q 228 381 249 394 q 184 353 207 367 q 139 328 161 339 q 99 317 117 317 q 55 328 74 317 q 24 357 36 339 q 7 396 13 375 q 1 436 1 417 q 15 534 1 471 q 54 668 29 597 q 113 806 79 739 q 185 914 146 872 q 238 947 210 940 q 285 943 267 953 q 308 908 304 933 q 286 847 311 883 q 219 734 250 797 q 164 607 188 671 q 128 489 138 533 q 132 430 119 444 q 178 433 144 415 q 274 503 213 450 q 386 608 326 549 q 506 731 446 668 q 624 853 567 793 q 730 961 682 914 q 813 1038 778 1008 q 863 1067 847 1067 q 901 1051 882 1067 q 919 1018 919 1036 q 888 980 919 1015 q 806 886 857 944 q 691 751 756 828 q 558 588 626 674 q 426 414 490 503 q 310 242 361 325 q 228 88 260 160 q 197 -33 197 17 q 205 -63 197 -49 q 213 -93 213 -78 q 194 -119 213 -108 q 158 -129 176 -129 q 126 -119 139 -129 q 104 -97 113 -110 q 92 -68 96 -83 q 89 -40 89 -53 q 108 69 89 11 q 153 186 126 128 q 211 300 181 244 q 264 401 242 356 z "},"X":{"ha":807,"x_min":-171,"x_max":1028,"o":"m 419 628 q 482 680 438 642 q 583 767 526 718 q 703 868 640 815 q 822 965 767 921 q 918 1037 878 1008 q 971 1065 958 1065 q 1011 1047 994 1065 q 1028 1008 1028 1029 q 1026 997 1028 1004 q 1021 982 1024 989 q 963 919 1003 956 q 872 840 924 882 q 760 754 819 799 q 646 667 701 710 q 542 588 590 625 q 464 522 494 550 q 489 456 469 497 q 533 365 508 414 q 586 263 558 315 q 638 167 614 211 q 676 91 661 124 q 692 49 692 58 q 674 13 692 28 q 635 -3 657 -3 q 597 24 621 -3 q 544 94 574 51 q 485 186 515 136 q 427 283 454 236 q 380 368 400 331 q 351 421 360 406 q 121 210 229 329 q -75 -31 13 90 q -101 -58 -86 -44 q -132 -72 -115 -72 q -161 -58 -151 -72 q -171 -28 -171 -43 q -142 42 -171 -3 q -67 142 -112 88 q 35 255 -21 196 q 144 367 90 314 q 241 464 197 421 q 307 529 285 507 q 290 590 301 547 q 267 680 278 633 q 247 767 256 726 q 240 821 239 807 q 246 847 243 833 q 255 870 249 860 q 272 887 261 881 q 303 893 283 893 q 342 858 324 893 q 375 778 360 824 q 401 690 390 733 q 419 628 413 646 z "},"W":{"ha":1214,"x_min":-118,"x_max":1529,"o":"m 474 392 q 390 307 436 354 q 292 211 343 260 q 189 115 240 163 q 92 32 138 68 q 11 -26 47 -4 q -46 -49 -25 -49 q -100 -24 -82 -49 q -118 35 -118 1 q -96 118 -118 61 q -35 251 -74 175 q 52 416 3 328 q 156 593 101 504 q 265 764 210 682 q 370 909 321 846 q 459 1010 419 972 q 522 1049 499 1049 q 560 1035 543 1049 q 585 1001 576 1021 q 590 968 593 982 q 576 945 586 954 q 550 931 565 936 q 518 924 535 925 q 451 833 490 889 q 368 708 413 776 q 278 565 324 640 q 192 419 232 490 q 123 288 153 349 q 81 185 93 226 q 132 231 99 199 q 208 304 165 263 q 299 395 250 346 q 397 493 347 444 q 493 587 446 542 q 578 667 540 632 q 644 722 617 701 q 683 743 672 743 q 719 729 704 743 q 735 693 735 715 q 719 606 735 664 q 685 478 704 549 q 651 333 667 408 q 636 196 636 258 q 644 136 636 149 q 667 133 653 124 q 701 166 682 142 q 740 218 719 190 q 855 371 792 283 q 986 553 918 458 q 1124 741 1054 647 q 1256 913 1193 835 q 1371 1046 1318 992 q 1458 1117 1424 1100 q 1506 1113 1482 1128 q 1529 1074 1529 1097 q 1509 1034 1529 1064 q 1458 965 1489 1004 q 1390 880 1426 925 q 1318 793 1353 835 q 1256 719 1283 751 q 1217 674 1228 688 q 1156 594 1196 649 q 1064 469 1115 539 q 957 325 1013 400 q 851 185 901 250 q 763 74 801 121 q 707 15 724 28 q 675 -3 692 4 q 639 -10 658 -10 q 582 11 603 -10 q 550 62 561 32 q 535 126 539 92 q 532 185 532 160 q 536 280 532 233 q 546 372 540 326 q 540 446 553 442 q 474 392 528 450 z "},"V":{"ha":606,"x_min":-29,"x_max":1026,"o":"m 674 879 q 708 911 686 890 q 756 956 729 932 q 810 1003 782 979 q 865 1048 839 1028 q 915 1080 892 1068 q 953 1092 938 1092 q 1004 1073 982 1090 q 1024 1025 1026 1056 q 1006 1002 1022 1018 q 964 965 989 986 q 909 922 939 944 q 851 878 879 899 q 800 841 822 857 q 768 818 778 825 q 439 498 590 669 q 169 132 288 326 q 147 96 158 113 q 119 64 135 79 q 88 35 104 49 q 47 22 71 21 q -8 57 8 24 q -26 135 -24 90 q -24 227 -29 181 q -15 301 -19 274 q -1 383 -12 326 q 29 510 11 440 q 71 656 47 581 q 122 792 94 731 q 180 893 150 854 q 240 931 210 932 q 263 924 256 931 q 273 907 271 917 q 273 887 275 897 q 267 869 271 876 q 167 574 213 725 q 92 274 121 422 q 92 233 88 244 q 119 249 97 222 q 250 416 186 335 q 380 576 314 497 q 518 730 446 654 q 674 879 590 806 z "},"U":{"ha":853,"x_min":-28,"x_max":1082,"o":"m 511 357 q 458 308 490 338 q 389 245 426 278 q 310 179 351 213 q 228 120 268 146 q 151 78 188 94 q 88 61 115 61 q 17 81 42 61 q -18 131 -8 100 q -25 200 -28 161 q -13 278 -22 239 q 9 352 -4 317 q 32 413 22 388 q 94 548 58 475 q 171 694 131 621 q 255 835 211 767 q 340 955 299 903 q 420 1038 382 1007 q 488 1069 458 1069 q 523 1055 507 1069 q 536 1021 539 1040 q 514 983 535 1013 q 459 906 493 953 q 383 801 425 860 q 299 676 342 742 q 217 540 256 610 q 150 404 178 471 q 106 273 119 328 q 103 196 92 218 q 155 190 115 174 q 271 271 194 206 q 422 413 343 332 q 578 581 500 494 q 730 750 657 667 q 864 899 803 833 q 969 1006 925 965 q 1033 1046 1014 1046 q 1065 1030 1049 1040 q 1079 999 1082 1019 q 1058 967 1079 996 q 1001 889 1036 938 q 920 777 965 840 q 827 642 875 714 q 732 493 779 569 q 646 342 685 417 q 580 198 607 267 q 544 74 553 129 q 544 31 542 51 q 544 -11 547 10 q 526 -47 542 -33 q 483 -61 510 -61 q 456 -50 467 -61 q 440 -22 446 -39 q 429 78 425 25 q 447 183 433 132 q 478 280 460 235 q 511 357 497 325 z "},"T":{"ha":597,"x_min":3,"x_max":1461,"o":"m 710 1040 q 628 1033 675 1039 q 528 1020 581 1028 q 421 1003 475 1013 q 320 987 367 994 q 239 974 274 979 q 189 969 204 969 q 141 981 157 969 q 122 1008 125 992 q 128 1044 118 1025 q 163 1078 139 1063 q 291 1128 214 1108 q 451 1160 368 1149 q 610 1176 533 1172 q 738 1181 688 1181 q 828 1181 764 1181 q 972 1178 892 1181 q 1138 1171 1051 1176 q 1297 1155 1225 1165 q 1415 1127 1368 1144 q 1461 1085 1461 1110 q 1444 1052 1461 1063 q 1411 1042 1428 1042 q 1238 1055 1324 1042 q 1061 1068 1151 1068 l 879 1067 q 854 1010 871 1033 q 807 969 838 988 q 749 920 788 958 q 662 825 711 882 q 556 698 613 768 q 444 553 500 628 q 336 406 388 479 q 245 269 285 332 q 182 157 206 206 q 158 83 158 108 q 149 49 158 68 q 124 13 139 29 q 92 -15 110 -4 q 57 -26 74 -26 q 19 -8 36 -26 q 3 31 3 10 q 44 166 3 82 q 151 349 86 250 q 297 553 217 449 q 456 753 378 658 q 603 924 535 849 q 710 1040 671 1000 z "},"S":{"ha":904,"x_min":-14,"x_max":1061,"o":"m 235 110 q 343 128 285 115 q 453 162 401 142 q 540 210 504 182 q 579 274 576 238 q 540 331 582 306 q 436 381 499 357 q 300 431 374 404 q 165 489 226 457 q 63 563 103 521 q 29 663 24 606 q 83 785 35 726 q 204 894 131 843 q 368 985 278 944 q 549 1053 458 1025 q 722 1094 640 1081 q 861 1103 804 1107 q 931 1089 894 1100 q 996 1057 967 1078 q 1043 1007 1025 1036 q 1057 940 1061 978 q 1020 860 1054 903 q 934 777 986 818 q 818 699 882 736 q 691 633 754 661 q 572 590 628 606 q 479 578 515 575 q 440 589 454 579 q 424 612 426 599 q 432 639 422 625 q 463 661 442 653 q 541 690 494 672 q 640 730 588 708 q 744 776 692 751 q 838 827 796 800 q 908 881 881 854 q 938 936 935 908 q 923 977 940 964 q 881 993 906 990 q 758 985 831 997 q 606 951 686 974 q 444 895 525 928 q 299 824 364 863 q 193 741 235 785 q 147 654 151 697 q 169 617 146 635 q 233 582 193 599 q 325 548 274 565 q 431 510 376 531 q 536 465 485 489 q 626 410 588 440 q 688 343 665 381 q 707 260 711 306 q 672 173 703 213 q 594 101 642 133 q 489 44 547 68 q 371 6 431 21 q 255 -16 311 -10 q 157 -19 199 -22 q 97 -6 128 -17 q 42 22 67 4 q 1 63 17 39 q -11 119 -14 88 q -1 150 -10 133 q 22 183 8 167 q 53 212 36 199 q 88 232 71 225 q 111 236 97 236 q 137 232 125 236 q 157 219 149 228 q 165 199 165 211 q 160 185 164 192 q 150 168 156 178 q 135 125 131 139 q 155 107 139 111 q 193 105 171 103 q 235 110 215 107 z "},"R":{"ha":1094,"x_min":-26,"x_max":1251,"o":"m 715 1039 q 794 1038 753 1038 q 876 1039 835 1039 q 957 1038 917 1039 q 1033 1029 997 1036 q 1110 1010 1069 1022 q 1183 977 1150 999 q 1233 924 1215 956 q 1243 846 1251 892 q 1176 732 1232 785 q 1038 634 1119 679 q 858 551 956 589 q 664 481 760 513 q 485 426 568 450 q 351 386 403 403 q 404 299 372 346 q 476 210 436 253 q 563 137 517 168 q 657 97 608 106 q 697 96 678 93 q 733 103 717 99 q 765 110 750 107 q 794 111 781 114 q 825 69 829 104 q 798 34 821 47 q 745 15 775 21 q 685 8 715 8 q 638 10 656 7 q 508 58 567 22 q 401 142 450 93 q 310 247 351 190 q 233 358 268 304 q 189 292 214 333 q 140 210 164 251 q 100 135 117 169 q 81 86 83 100 q 81 62 78 72 q 87 42 83 51 q 93 25 90 33 q 94 7 96 17 q 88 -4 94 1 q 74 -14 82 -10 q 56 -21 65 -18 q 39 -22 47 -24 q -15 13 -3 -15 q -22 76 -26 42 q 7 194 -17 131 q 62 320 31 257 q 128 441 93 383 q 190 543 163 499 q 274 673 231 607 q 360 814 317 739 q 244 753 293 788 q 164 657 196 719 q 108 629 147 622 q 76 646 89 632 q 68 679 64 660 q 122 774 76 728 q 228 858 168 819 q 351 926 289 896 q 457 971 414 956 q 510 999 482 979 q 565 1040 538 1019 q 619 1073 593 1060 q 668 1082 644 1086 q 697 1066 690 1078 q 715 1039 703 1054 m 308 493 q 378 512 332 499 q 485 545 425 525 q 615 590 544 565 q 754 642 685 614 q 888 699 824 669 q 1004 757 953 728 q 1077 808 1047 782 q 1113 856 1107 833 q 1097 898 1119 879 q 1013 928 1075 917 q 902 939 969 935 q 766 939 835 943 q 639 917 697 935 q 554 864 581 900 q 424 683 492 775 q 308 493 356 590 z "},"Q":{"ha":1126,"x_min":-6,"x_max":1081,"o":"m 678 144 l 676 122 q 683 60 676 92 q 699 -2 690 29 q 714 -65 707 -33 q 721 -128 721 -96 q 717 -154 721 -140 q 705 -180 713 -168 q 685 -199 697 -192 q 658 -207 674 -207 q 617 -173 633 -207 q 590 -94 601 -139 q 570 -6 579 -50 q 551 58 561 38 q 479 29 518 44 q 399 1 440 14 q 317 -22 358 -12 q 240 -31 276 -31 q 133 -8 179 -31 q 57 51 88 14 q 10 138 26 89 q -6 240 -6 188 q 9 340 -6 283 q 51 461 24 397 q 115 592 78 525 q 196 724 151 660 q 290 846 240 789 q 392 946 339 903 q 477 1004 431 978 q 568 1038 524 1031 q 651 1028 613 1046 q 714 954 690 1010 q 798 999 753 978 q 893 1021 843 1021 q 978 1003 943 1021 q 1037 956 1014 985 q 1070 888 1060 926 q 1081 807 1081 849 q 1045 622 1081 717 q 952 440 1010 528 q 822 275 894 351 q 678 144 750 199 m 638 857 q 601 900 622 890 q 556 904 579 910 q 508 883 532 899 q 467 851 485 868 q 341 717 403 794 q 231 558 279 640 q 153 399 183 476 q 124 261 124 321 q 127 198 124 229 q 143 142 131 167 q 180 101 156 117 q 247 86 204 86 q 319 94 282 86 q 394 114 357 101 q 466 144 432 126 q 526 183 500 163 q 515 278 518 232 q 513 372 513 324 q 542 622 513 499 q 638 857 572 744 m 646 260 q 767 371 708 306 q 869 510 825 436 q 941 662 914 585 q 968 807 968 739 q 965 842 968 824 q 954 877 963 861 q 932 904 946 893 q 896 915 918 915 q 813 883 850 915 q 748 801 776 851 q 700 690 719 751 q 667 567 681 628 q 649 455 654 507 q 643 372 643 403 q 643 316 643 349 q 646 260 643 283 z "},"P":{"ha":1233,"x_min":-57,"x_max":1296,"o":"m 144 378 l 449 821 q 376 785 417 810 q 303 738 335 761 q 250 701 274 717 q 218 686 226 685 q 201 694 207 688 q 192 710 196 700 q 190 756 179 735 q 217 794 201 776 q 288 854 244 825 q 380 908 332 883 q 473 951 428 932 q 549 979 518 969 q 608 1011 576 988 q 669 1058 639 1035 q 727 1099 700 1082 q 774 1114 754 1117 q 810 1082 807 1107 q 807 1032 814 1057 q 919 1033 865 1032 q 1031 1024 972 1033 q 1136 996 1085 1014 q 1224 947 1188 978 q 1278 873 1261 917 q 1282 769 1296 829 q 1199 615 1263 685 q 1044 490 1135 546 q 845 393 954 435 q 625 323 736 351 q 410 279 514 294 q 225 261 306 264 q 198 221 211 243 q 173 175 185 199 q 153 128 161 151 q 140 83 144 104 q 141 60 138 71 q 149 40 144 49 q 156 22 153 31 q 158 4 160 13 q 137 -24 154 -15 q 101 -28 119 -32 q 63 -9 76 -24 q 42 25 49 6 q 35 65 36 44 q 39 103 35 86 q 65 183 49 143 q 96 264 81 224 q 47 283 75 272 q -4 308 19 293 q -42 342 -28 322 q -50 389 -57 361 q -27 417 -44 408 q 7 422 -10 425 q 40 403 22 419 q 88 381 57 388 q 144 378 121 374 m 294 385 q 387 383 333 378 q 501 401 440 388 q 624 433 561 414 q 742 473 686 451 q 844 515 799 494 q 918 554 890 536 q 985 599 947 571 q 1060 662 1024 628 q 1124 732 1096 696 q 1158 800 1151 768 q 1151 849 1165 829 q 1114 883 1138 869 q 1060 906 1090 897 q 1006 918 1031 914 q 858 926 938 931 q 708 908 779 922 q 651 869 686 904 q 574 784 615 835 q 489 674 532 733 q 407 557 446 614 q 338 453 368 500 q 294 385 308 407 z "},"}":{"ha":560,"x_min":-76,"x_max":574,"o":"m 469 607 q 438 572 454 589 q 403 538 421 554 q 332 458 361 497 q 283 376 303 418 q 252 285 263 333 q 240 179 242 236 q 238 116 239 147 q 229 53 236 85 q 168 -85 214 -32 q 47 -178 122 -139 q -17 -191 14 -194 q -62 -173 -47 -187 q -67 -137 -76 -158 q -12 -100 -58 -117 q 42 -72 17 -90 q 88 -28 68 -53 q 119 24 107 -4 q 135 82 132 53 q 140 141 138 111 q 142 200 142 171 q 159 330 143 274 q 202 435 175 386 q 267 529 229 483 q 349 628 304 575 q 348 721 339 672 q 376 819 357 769 q 417 915 394 868 q 456 1004 439 963 q 463 1065 472 1044 q 439 1099 453 1086 q 417 1124 425 1113 q 426 1154 408 1135 q 472 1175 447 1176 q 517 1157 496 1174 q 553 1115 539 1140 q 571 1067 568 1090 q 561 988 574 1028 q 531 909 549 949 q 493 829 513 869 q 461 751 474 789 q 449 676 449 713 q 469 607 449 640 z "},"|":{"ha":440,"x_min":-168,"x_max":378,"o":"m -156 -110 q -138 -61 -149 -86 q -121 -11 -128 -36 q -8 263 -69 129 q 115 532 53 397 q 136 578 122 547 q 167 645 150 608 q 203 722 183 682 q 241 794 222 761 q 278 851 260 828 q 310 882 296 875 q 356 881 333 893 q 376 842 378 869 q 362 798 376 833 q 324 710 347 763 q 271 592 301 657 q 208 459 240 528 q 144 324 176 390 q 84 200 111 257 q 38 101 57 143 q 10 43 18 60 q -11 -10 3 28 q -42 -90 -25 -49 q -73 -165 -58 -131 q -94 -204 -87 -199 q -138 -218 -114 -222 q -168 -186 -162 -214 q -167 -172 -168 -182 q -163 -149 -165 -161 q -159 -126 -161 -137 q -156 -110 -157 -115 z "},"{":{"ha":386,"x_min":-76,"x_max":574,"o":"m 28 386 q 60 422 43 404 q 94 456 76 439 q 165 535 136 496 q 215 617 194 575 q 244 708 235 660 q 257 814 254 757 q 260 877 258 846 q 268 940 261 908 q 329 1078 283 1025 q 450 1171 375 1132 q 514 1184 483 1188 q 559 1166 544 1181 q 565 1131 574 1151 q 510 1093 556 1110 q 455 1065 481 1083 q 410 1022 429 1046 q 378 969 390 997 q 363 911 365 940 q 358 852 360 882 q 356 793 356 822 q 338 663 354 719 q 295 558 322 607 q 231 464 268 510 q 149 365 193 418 q 149 272 158 321 q 122 174 140 222 q 81 78 103 125 q 42 -11 58 31 q 35 -72 25 -51 q 58 -106 44 -93 q 81 -131 72 -119 q 71 -161 89 -142 q 26 -183 50 -185 q -20 -164 1 -181 q -57 -122 -42 -147 q -74 -74 -72 -97 q -64 4 -76 -36 q -33 84 -51 44 q 4 164 -15 124 q 36 242 24 204 q 49 317 49 281 q 28 386 49 353 z "},"z":{"ha":669,"x_min":-461,"x_max":707,"o":"m 286 239 q 348 269 313 250 q 422 311 383 289 q 499 356 460 333 q 570 399 538 379 q 626 431 603 418 q 660 444 650 443 q 692 437 678 451 q 707 403 707 422 q 700 383 707 392 q 683 369 693 375 q 663 357 674 363 q 644 347 651 351 l 311 163 q 276 44 314 114 q 178 -103 239 -26 q 44 -256 118 -181 q -101 -389 -31 -331 q -215 -463 -162 -440 q -311 -489 -268 -486 q -385 -476 -354 -492 q -435 -436 -417 -461 q -456 -381 -451 -411 q -449 -312 -461 -350 q -401 -231 -436 -275 q -304 -133 -367 -186 q -167 -27 -239 -79 q -29 69 -96 25 q 93 148 38 114 q 182 201 149 182 q 108 220 147 226 q 36 190 69 214 q -18 174 11 174 q -50 189 -37 174 q -62 219 -62 204 q -44 258 -62 244 q 29 311 -10 285 q 106 364 68 338 q 176 417 143 390 q 232 468 208 443 q 285 542 275 515 q 284 574 296 568 q 243 566 272 581 q 176 517 214 551 q 133 475 154 496 q 95 438 113 454 q 65 412 78 422 q 47 401 53 401 q 8 413 26 401 q -11 446 -11 425 q 7 502 -11 472 q 55 560 25 532 q 122 613 85 588 q 196 657 158 638 q 304 688 254 686 q 383 669 354 690 q 410 606 411 649 q 368 503 410 563 q 328 454 353 481 q 276 402 304 428 q 220 353 249 376 q 169 313 192 329 q 205 303 186 311 q 240 285 224 296 q 269 263 257 275 q 286 239 282 250 m -203 -317 q -83 -218 -142 -271 q 25 -113 -25 -165 q 113 -12 75 -61 q 171 75 151 38 q 70 12 124 46 q -39 -60 17 -22 q -149 -138 -94 -97 q -253 -222 -204 -179 q -337 -313 -311 -274 q -356 -370 -362 -353 q -310 -376 -349 -387 q -203 -317 -272 -365 z "},"y":{"ha":651,"x_min":-69,"x_max":631,"o":"m 244 332 q 188 301 219 319 q 123 267 156 283 q 59 240 90 251 q 4 229 28 229 q -49 250 -29 229 q -69 303 -69 271 q -58 355 -69 322 q -26 426 -46 388 q 19 506 -7 465 q 72 583 44 547 q 126 645 99 618 q 175 682 153 672 q 222 676 200 690 q 244 638 244 661 q 231 613 244 632 q 198 566 218 593 q 156 509 178 539 q 115 453 133 479 q 75 363 69 388 q 142 375 81 339 q 213 418 171 392 q 299 473 254 444 q 390 531 344 501 q 472 583 435 560 q 534 623 508 607 q 565 642 560 639 q 612 638 593 654 q 631 597 631 621 q 623 572 631 585 q 605 549 615 560 q 583 528 594 538 q 565 513 572 519 q 397 348 479 438 q 243 159 314 258 q 118 -47 172 60 q 36 -260 64 -153 q 19 -281 33 -271 q -10 -292 6 -292 q -40 -279 -26 -292 q -54 -251 -54 -267 q -21 -94 -54 -178 q 60 69 13 -10 q 158 218 107 149 q 244 332 208 288 z "},"x":{"ha":499,"x_min":-153,"x_max":549,"o":"m 101 486 q 151 526 119 500 q 220 581 182 551 q 300 640 258 610 q 381 694 342 669 q 453 735 419 719 q 507 750 486 750 q 535 740 522 750 q 549 714 549 729 q 515 685 549 710 q 432 626 482 661 q 324 548 382 590 q 215 465 265 506 q 132 391 165 425 q 99 338 99 357 q 110 299 99 313 q 140 282 122 286 q 178 281 158 278 q 215 289 199 283 q 296 320 253 300 q 378 363 339 340 q 449 407 418 386 q 492 440 481 428 q 513 445 499 447 q 536 433 526 443 q 542 410 544 425 q 526 382 539 394 q 450 318 499 351 q 347 257 401 285 q 237 211 292 229 q 143 193 182 193 q 63 205 99 193 q 6 256 28 217 q -26 228 -11 246 q -54 194 -40 211 q -83 164 -68 176 q -114 151 -97 151 q -142 164 -131 151 q -153 193 -153 176 q -131 245 -153 219 q -83 301 -110 271 q -34 370 -57 332 q -8 460 -11 408 q -2 511 -7 476 q 13 581 3 546 q 39 641 24 615 q 75 667 54 667 q 107 651 99 667 q 115 614 115 635 q 110 550 115 583 q 101 486 104 517 z "},"w":{"ha":918,"x_min":-47,"x_max":900,"o":"m 269 386 q 220 335 250 369 q 157 267 190 301 q 91 208 124 233 q 35 182 58 182 q -27 217 -7 182 q -47 300 -47 253 q -37 367 -47 328 q -9 449 -26 406 q 32 535 8 492 q 82 612 56 578 q 136 667 108 646 q 189 688 164 688 q 222 672 206 688 q 238 633 238 657 q 219 597 238 621 q 177 544 201 574 q 128 481 153 514 q 89 421 103 449 q 62 351 68 381 q 62 310 56 321 q 89 311 68 300 q 143 364 110 322 q 187 419 160 383 q 244 492 214 454 q 305 565 275 531 q 356 615 335 599 q 392 633 372 628 q 428 635 411 639 q 456 617 444 631 q 467 578 467 603 q 460 543 467 563 q 442 503 453 524 q 387 380 404 438 q 378 291 369 322 q 426 265 388 260 q 542 333 465 271 q 611 402 574 360 q 685 491 649 444 q 751 583 721 538 q 800 658 782 628 q 828 686 811 679 q 862 689 846 693 q 889 669 878 685 q 900 629 900 654 q 873 542 900 593 q 801 435 846 490 q 701 328 757 381 q 585 239 644 276 q 469 183 526 201 q 368 176 413 164 q 297 238 324 189 q 269 386 269 288 z "},"v":{"ha":557,"x_min":-99,"x_max":579,"o":"m 56 339 q 69 337 49 318 q 127 394 90 356 q 210 484 164 433 q 299 579 257 535 q 376 653 342 624 q 421 678 410 682 q 451 660 436 671 q 467 631 467 650 q 453 601 467 619 q 419 560 439 582 q 376 514 399 538 q 335 469 353 490 q 288 399 292 421 q 304 374 285 378 q 359 378 324 369 q 431 401 394 388 q 499 428 468 415 q 539 444 529 440 q 565 444 557 451 q 576 425 574 438 q 577 403 579 415 q 558 382 575 392 q 324 288 415 299 q 192 331 233 278 q 144 283 175 314 q 81 221 114 251 q 15 167 47 190 q -39 144 -17 144 q -83 166 -67 144 q -99 214 -99 188 q -87 264 -99 228 q -56 345 -75 300 q -13 439 -36 390 q 33 528 10 488 q 75 594 56 568 q 106 619 94 619 q 142 608 125 619 q 158 581 158 596 q 145 528 158 560 q 115 462 132 496 q 80 395 97 428 q 56 339 63 363 z "},"q":{"ha":921,"x_min":-139,"x_max":951,"o":"m 282 303 q 208 268 247 286 q 130 235 168 250 q 58 210 92 219 q 4 200 25 200 q -62 225 -35 200 q -89 288 -89 250 q -61 374 -89 325 q 12 476 -33 424 q 113 579 57 528 q 226 670 169 631 q 333 735 282 710 q 419 760 385 760 q 451 756 435 760 q 481 742 468 751 q 503 718 494 732 q 511 686 511 704 q 496 633 511 664 q 464 575 481 603 q 445 558 458 567 q 418 548 432 550 q 393 554 404 546 q 382 586 382 563 q 375 615 382 610 q 357 618 368 621 q 295 590 328 611 q 231 544 263 569 q 173 490 200 518 q 126 443 146 463 q 72 376 89 404 q 58 336 54 349 q 90 328 63 324 q 169 357 117 332 q 265 403 213 378 q 370 456 317 429 q 475 506 424 482 q 567 549 526 531 q 636 580 608 568 q 669 592 664 592 q 703 575 690 592 q 717 539 717 558 q 675 472 710 514 q 593 383 640 431 q 494 284 546 335 q 399 190 442 233 q 370 161 383 175 q 355 141 357 147 q 365 139 353 135 q 411 163 378 143 q 522 233 456 189 q 660 323 589 278 q 800 405 732 368 q 917 454 868 442 q 938 449 929 457 q 949 428 947 440 q 946 403 951 415 q 924 388 940 392 q 764 308 847 357 q 594 199 681 260 q 422 69 507 139 q 256 -71 336 0 q 106 -211 176 -142 q -22 -340 35 -281 q -43 -362 -32 -351 q -69 -382 -54 -372 q -94 -389 -79 -389 q -126 -375 -114 -389 q -139 -340 -139 -361 q -115 -274 -139 -317 q -51 -176 -90 -231 q 37 -60 -12 -122 q 137 61 86 1 q 235 175 188 121 q 319 269 283 229 q 353 313 346 299 q 355 328 361 326 q 330 323 349 331 q 282 303 311 315 z "},"c":{"ha":515,"x_min":-82,"x_max":554,"o":"m 500 444 q 533 448 521 453 q 550 432 546 443 q 551 406 554 421 q 535 382 547 392 q 478 338 515 363 q 396 289 442 314 q 299 239 350 264 q 201 194 249 214 q 114 163 154 175 q 49 151 74 151 q 0 157 24 151 q -42 177 -24 163 q -71 216 -60 192 q -82 276 -82 240 q -62 360 -82 315 q -12 450 -43 406 q 60 535 19 494 q 144 608 101 576 q 227 659 186 640 q 300 678 268 678 q 385 651 349 678 q 421 563 421 625 q 414 537 421 550 q 397 513 407 524 q 374 500 386 503 q 353 506 363 497 q 325 532 340 519 q 290 544 310 544 q 231 528 261 544 q 172 485 201 511 q 117 428 143 460 q 71 367 90 396 q 40 306 46 329 q 41 269 33 282 q 66 255 49 257 q 107 257 83 253 q 211 290 161 268 q 309 340 261 313 q 404 395 357 367 q 500 444 451 424 z "},"d":{"ha":746,"x_min":-119,"x_max":801,"o":"m 551 319 q 639 378 594 347 q 724 439 683 408 q 751 445 739 450 q 769 428 764 440 q 773 399 775 415 q 757 369 771 382 q 666 299 721 338 q 552 225 611 260 q 440 167 493 190 q 354 143 386 143 q 283 167 306 143 q 254 225 260 190 q 255 299 249 260 q 271 368 261 338 q 210 308 249 346 q 127 235 171 271 q 41 172 83 199 q -31 146 -1 146 q -65 154 -49 146 q -93 175 -81 163 q -112 203 -106 188 q -119 236 -119 219 q -83 355 -119 293 q 7 472 -46 417 q 120 569 60 526 q 226 629 181 611 q 300 644 264 643 q 368 622 336 644 q 419 680 382 636 q 501 778 456 724 q 595 890 547 833 q 679 983 643 946 q 732 1028 707 1014 q 782 1017 757 1042 q 797 994 793 1007 q 794 971 801 982 q 770 940 792 965 q 715 874 749 914 q 641 781 682 833 q 558 672 600 729 q 478 555 517 614 q 411 440 439 496 q 368 333 379 378 q 373 269 357 289 q 432 260 389 250 q 551 319 475 271 m 278 536 q 236 531 265 544 q 174 494 207 517 q 108 442 140 471 q 56 393 75 414 q -6 318 10 344 q -12 287 -21 292 q 26 299 -4 282 q 100 354 56 315 q 144 394 119 371 q 194 443 169 418 q 242 492 219 468 q 278 536 264 517 z "},"e":{"ha":592,"x_min":-78,"x_max":618,"o":"m 68 385 q 64 379 65 382 q 60 374 63 376 q 27 301 26 326 q 50 266 28 276 q 107 258 72 256 q 175 268 142 260 q 279 303 226 281 q 384 352 332 326 q 485 403 436 378 q 578 446 533 428 q 604 448 599 453 q 614 435 610 443 q 618 411 618 424 q 604 389 618 399 q 531 342 576 368 q 433 288 486 315 q 324 235 381 261 q 218 192 268 210 q 126 165 178 176 q 30 160 75 154 q -47 193 -15 165 q -78 283 -78 221 q -56 374 -78 328 q 4 465 -33 421 q 90 549 42 510 q 189 619 138 589 q 290 666 240 649 q 381 683 340 683 q 453 665 419 683 q 486 601 486 646 q 467 549 486 576 q 415 496 447 522 q 344 445 383 469 q 267 403 306 421 q 193 374 228 385 q 136 364 158 364 q 101 369 118 364 q 68 385 83 375 m 165 474 q 238 500 206 486 q 293 529 271 514 q 323 556 317 544 q 324 571 329 567 q 303 572 318 575 q 269 558 288 569 q 219 523 246 544 q 165 474 193 501 z "},"f":{"ha":582,"x_min":-175,"x_max":713,"o":"m 332 514 q 358 515 336 514 q 410 517 381 517 q 474 515 440 517 q 535 506 507 513 q 583 486 564 499 q 601 453 601 474 q 591 422 601 433 q 563 411 581 411 q 509 421 538 411 q 451 431 481 431 q 314 422 382 431 q 176 403 246 414 q 58 242 114 328 q -40 69 1 157 q -25 40 -33 54 q -17 10 -17 25 q -28 -24 -17 -6 q -57 -60 -40 -43 q -92 -88 -74 -76 q -124 -100 -110 -100 q -159 -85 -143 -100 q -175 -50 -175 -69 q -164 15 -175 -22 q -135 92 -153 51 q -95 174 -118 132 q -49 254 -72 215 q -5 326 -26 293 q 32 383 17 360 q 15 395 25 390 q -3 406 6 400 q -19 418 -12 411 q -25 438 -25 425 q -5 467 -25 457 q 44 486 15 476 q 108 512 74 496 q 169 561 142 528 q 225 623 189 582 q 307 714 261 664 q 403 816 353 764 q 503 911 454 868 q 593 982 551 954 q 661 1010 635 1010 q 698 996 683 1010 q 713 961 713 982 q 689 906 713 942 q 628 827 665 871 q 547 735 592 783 q 460 644 503 688 q 383 565 418 600 q 332 514 349 531 z "},"!":{"ha":401,"x_min":-19,"x_max":499,"o":"m 496 929 q 462 869 494 910 q 383 766 429 828 q 283 622 336 704 q 189 438 231 539 q 167 397 181 418 q 128 378 154 375 q 100 397 110 381 q 92 432 90 413 q 116 520 96 465 q 165 638 136 575 q 231 763 194 700 q 305 877 268 826 q 377 958 342 928 q 440 985 413 988 q 481 965 463 982 q 496 929 499 949 m 19 119 q -12 140 -4 122 q -17 178 -19 158 q 7 230 -14 210 q 58 246 28 250 q 94 221 89 242 q 88 177 99 200 q 58 135 78 154 q 19 119 38 117 z "},"\"":{"ha":572,"x_min":147,"x_max":468,"o":"m 307 844 q 248 760 271 790 q 211 717 225 731 q 191 699 197 703 q 181 696 185 696 q 156 701 165 693 q 147 724 147 708 q 154 749 147 731 q 172 789 161 767 q 197 834 183 811 q 221 874 210 857 q 251 897 233 893 q 283 893 268 900 q 305 872 297 886 q 307 844 313 858 m 463 844 q 403 760 426 790 q 367 717 381 731 q 347 699 353 703 q 336 696 340 696 q 312 701 321 693 q 303 724 303 708 q 310 749 303 731 q 328 789 317 767 q 352 834 339 811 q 376 874 365 857 q 406 897 389 893 q 438 893 424 900 q 460 872 453 886 q 463 844 468 858 z "},"#":{"ha":1203,"x_min":4,"x_max":1194,"o":"m 515 625 q 613 634 565 628 q 710 640 661 640 q 743 665 725 649 q 780 701 761 682 q 817 738 799 719 q 854 769 836 757 q 890 781 872 782 q 922 771 908 779 q 940 749 935 763 q 940 724 946 736 q 922 690 932 706 q 901 656 913 675 l 1018 656 q 1092 653 1054 656 q 1168 640 1131 651 q 1189 622 1183 633 q 1190 597 1194 610 q 1171 576 1186 585 q 1131 567 1156 567 q 1084 569 1107 567 q 1050 572 1061 572 q 935 569 989 572 q 834 551 881 567 q 750 501 788 536 q 685 403 713 467 q 765 411 725 407 q 849 415 806 415 q 888 413 863 415 q 935 404 913 411 q 976 384 958 397 q 993 350 993 371 q 983 325 993 335 q 960 315 972 315 q 910 314 935 315 q 860 313 885 313 q 748 310 804 313 q 633 308 692 308 q 593 288 614 308 q 551 236 572 267 q 509 169 531 206 q 467 103 488 133 q 427 51 446 72 q 390 31 408 31 q 359 42 372 31 q 346 74 346 54 q 360 108 346 81 q 391 169 374 136 q 424 231 408 201 q 446 272 440 261 q 335 266 386 269 q 238 251 283 263 q 210 204 229 239 q 169 132 192 169 q 126 66 147 94 q 93 38 104 38 q 60 52 74 38 q 47 86 47 67 q 54 117 47 97 q 71 158 61 136 q 91 199 81 179 q 107 232 101 219 q 71 225 89 228 q 36 222 53 222 q 8 237 13 222 q 10 269 4 251 q 29 304 17 288 q 53 326 42 321 q 101 344 82 340 q 135 351 121 349 q 163 356 150 353 q 189 372 175 360 q 222 412 203 385 q 269 486 242 439 q 215 474 249 483 q 147 455 181 465 q 88 436 114 444 q 57 428 63 428 q 8 473 10 444 q 47 525 7 501 q 141 559 90 550 q 240 576 192 568 q 329 601 288 585 q 399 657 371 618 q 431 701 408 672 q 481 756 454 729 q 533 803 507 783 q 576 824 560 824 q 608 812 594 824 q 621 783 621 800 q 606 755 621 776 q 574 707 592 733 q 538 657 556 681 q 515 625 521 633 m 619 525 q 514 524 567 529 q 424 504 461 518 q 374 443 399 476 q 336 375 349 410 q 406 380 378 378 q 451 384 433 382 q 478 388 468 386 q 497 390 489 390 q 533 401 518 392 q 562 428 549 411 q 589 470 575 446 q 619 525 603 494 z "},"$":{"ha":747,"x_min":-28,"x_max":824,"o":"m 679 790 q 765 760 733 788 q 783 685 797 733 q 767 655 781 674 q 733 633 753 636 q 710 638 717 631 q 699 657 703 646 q 682 682 693 672 q 658 697 671 692 q 634 703 646 701 q 617 707 622 706 q 541 628 574 671 q 475 543 508 586 q 516 518 493 532 q 557 488 539 504 q 585 451 575 471 q 590 408 596 431 q 540 338 582 369 q 443 284 497 307 q 333 247 389 261 q 242 231 278 233 q 217 197 233 219 q 184 149 201 175 q 149 94 167 122 q 119 46 132 67 q 90 10 104 21 q 51 18 75 -1 q 36 54 32 35 q 52 97 40 75 q 78 141 64 119 q 108 184 93 163 q 133 226 122 206 q 77 228 107 224 q 24 248 47 233 q -14 286 0 263 q -21 343 -28 310 q -12 360 -19 351 q 7 374 -4 368 q 30 379 18 379 q 53 369 42 379 q 84 340 67 349 q 121 327 101 331 q 160 325 140 324 q 201 329 181 326 q 263 410 231 369 q 318 494 294 451 q 257 513 294 503 q 185 538 219 524 q 128 574 150 553 q 113 626 106 596 q 147 675 118 653 q 216 715 175 697 q 306 747 257 733 q 403 769 356 760 q 491 783 450 778 q 557 790 532 789 q 582 819 564 799 q 623 866 600 840 q 672 919 646 892 q 720 969 697 946 q 761 1006 743 992 q 788 1018 779 1019 q 813 1007 803 1015 q 819 983 824 999 q 799 944 817 972 q 758 887 781 917 q 713 829 735 857 q 679 790 690 801 m 382 575 q 394 590 383 576 q 422 624 406 604 q 456 665 438 643 q 490 706 474 686 q 415 697 454 704 q 344 679 376 690 q 290 655 311 668 q 269 627 269 642 q 295 599 269 613 q 382 575 321 586 m 424 472 q 377 407 400 436 q 332 342 354 378 q 398 361 368 350 q 454 392 428 372 q 468 403 460 396 q 478 422 476 411 q 468 444 479 432 q 424 472 457 457 z "},"%":{"ha":785,"x_min":-56,"x_max":704,"o":"m -54 111 q -50 142 -56 125 q -35 178 -44 158 q 11 256 -21 207 q 87 365 43 306 q 183 492 131 425 q 291 624 236 558 q 401 748 346 689 q 503 852 456 807 q 590 924 551 897 q 651 951 629 951 q 684 943 672 951 q 700 922 696 935 q 700 896 704 910 q 683 872 696 882 q 545 747 622 821 q 388 585 468 672 q 233 403 308 497 q 97 219 157 310 q 59 158 78 189 q 22 93 40 126 q 7 76 15 82 q -17 69 -1 69 q -44 83 -36 69 q -54 111 -53 96 m 385 119 q 319 143 346 119 q 293 203 293 167 q 321 272 293 229 q 388 357 349 315 q 468 429 426 399 q 538 460 510 460 q 595 438 569 460 q 621 386 621 415 q 599 307 621 353 q 544 219 578 261 q 467 149 510 178 q 385 119 425 119 m 506 333 q 467 316 488 331 q 431 283 447 301 q 403 244 414 264 q 392 208 392 224 l 392 199 q 506 333 482 242 m 369 860 q 354 797 369 829 q 313 736 339 764 q 253 690 286 708 q 185 672 219 672 q 127 693 151 672 q 103 744 103 714 q 119 816 103 782 q 164 876 136 850 q 228 917 192 901 q 306 933 265 933 q 330 926 318 933 q 351 908 342 919 q 365 885 360 897 q 369 860 369 872 m 279 814 q 288 842 288 833 q 282 853 288 851 q 266 849 276 854 q 244 833 256 843 q 186 765 196 789 q 190 739 176 742 q 229 754 203 736 q 279 814 256 772 z "},"&":{"ha":1131,"x_min":-29,"x_max":1022,"o":"m 492 617 q 567 475 525 543 q 671 351 610 407 q 772 510 738 422 q 807 693 807 599 q 818 727 807 713 q 849 744 829 742 q 884 736 869 747 q 904 706 899 725 q 910 615 917 667 q 884 512 903 564 q 840 413 865 460 q 790 335 815 365 q 769 308 779 321 q 751 281 760 296 q 858 209 797 235 q 979 164 919 183 q 1008 148 994 158 q 1017 118 1022 138 q 987 92 1011 96 q 929 97 963 89 q 857 122 896 106 q 782 155 818 138 q 718 187 746 172 q 679 208 690 201 q 488 78 585 136 q 271 -4 390 21 q 174 -19 225 -15 q 81 -10 124 -22 q 8 34 38 3 q -26 126 -22 65 q -17 211 -29 169 q 22 289 -4 253 q 183 477 92 392 q 371 642 275 563 q 356 709 364 675 q 344 776 349 743 q 369 950 333 882 q 463 1053 406 1018 q 588 1092 521 1089 q 704 1070 654 1094 q 775 996 754 1046 q 763 874 796 946 q 714 799 746 835 q 644 731 682 764 q 567 670 607 699 q 492 617 526 642 m 403 551 q 313 479 360 518 q 222 397 265 440 q 142 305 178 353 q 89 206 107 257 q 73 131 71 160 q 94 88 75 101 q 145 73 113 74 q 222 81 178 72 q 424 153 331 101 q 596 276 517 204 l 403 551 m 458 706 q 551 767 507 733 q 632 840 596 800 q 671 890 653 863 q 692 940 689 917 q 678 980 696 963 q 614 1001 661 997 q 510 979 547 1007 q 456 906 472 951 q 442 806 440 860 q 458 706 444 751 z "},"'":{"ha":401,"x_min":147,"x_max":313,"o":"m 307 844 q 248 760 271 790 q 211 717 225 731 q 191 699 197 703 q 181 696 185 696 q 156 701 165 693 q 147 724 147 708 q 154 749 147 731 q 172 789 161 767 q 197 834 183 811 q 221 874 210 857 q 251 897 233 893 q 283 893 268 900 q 305 872 297 886 q 307 844 313 858 z "},"(":{"ha":546,"x_min":-7,"x_max":768,"o":"m 401 -58 q 481 -67 457 -54 q 501 -97 504 -79 q 472 -133 499 -115 q 399 -157 444 -151 q 315 -153 358 -162 q 236 -126 272 -143 q 117 -47 167 -96 q 38 64 67 3 q 1 195 8 125 q 8 339 -7 265 q 92 576 32 457 q 233 805 153 694 q 408 1012 314 915 q 593 1183 501 1108 q 624 1208 606 1194 q 661 1231 642 1221 q 701 1244 681 1240 q 740 1240 722 1249 q 765 1217 761 1231 q 760 1185 768 1204 q 744 1165 754 1174 q 725 1150 735 1157 q 439 886 563 1029 q 218 567 315 743 q 152 424 181 500 q 118 274 124 349 q 137 128 113 199 q 231 0 161 57 q 310 -48 271 -33 q 401 -58 349 -62 z "},")":{"ha":622,"x_min":-218,"x_max":557,"o":"m 149 1156 q 69 1164 93 1151 q 49 1194 46 1176 q 78 1230 51 1213 q 151 1254 106 1247 q 235 1250 192 1260 q 314 1224 278 1240 q 433 1143 383 1192 q 513 1033 483 1094 q 549 902 542 972 q 542 758 557 832 q 458 522 518 640 q 317 292 397 403 q 142 85 236 182 q -43 -86 49 -11 q -74 -110 -56 -97 q -112 -133 -92 -124 q -152 -147 -132 -143 q -190 -143 -172 -151 q -215 -120 -211 -133 q -210 -87 -218 -107 q -194 -68 -204 -76 q -175 -53 -185 -60 q 110 210 -12 68 q 332 531 233 353 q 398 673 369 597 q 432 824 426 749 q 413 969 438 899 q 319 1097 388 1040 q 240 1145 279 1131 q 149 1156 201 1160 z "},"*":{"ha":471,"x_min":226,"x_max":540,"o":"m 331 776 q 312 760 322 769 q 290 742 301 750 q 265 733 278 735 q 242 742 253 732 q 229 771 226 754 q 243 804 232 788 q 269 835 254 821 q 292 860 283 850 q 238 913 244 893 q 247 940 231 932 q 297 947 264 947 q 361 940 329 946 q 374 970 365 950 q 395 1009 383 990 q 420 1039 407 1028 q 449 1044 433 1050 q 467 1028 461 1039 q 476 1005 474 1018 q 479 978 479 992 q 479 954 479 964 q 533 924 526 939 q 526 895 540 910 q 485 868 511 881 q 440 846 460 856 q 431 777 436 813 q 413 724 425 742 q 382 714 401 706 q 331 776 363 722 z "},"+":{"ha":626,"x_min":33,"x_max":508,"o":"m 371 549 q 394 545 381 547 q 423 541 408 543 q 451 537 438 539 q 472 531 464 535 q 500 506 492 522 q 506 476 508 490 q 490 451 503 461 q 454 443 476 442 q 397 446 426 446 q 340 449 368 446 q 333 418 338 439 q 324 373 329 397 q 313 324 318 349 q 304 282 308 300 q 292 246 301 267 q 264 225 282 225 q 233 238 243 225 q 219 269 222 250 q 218 313 217 289 q 224 361 219 338 q 232 404 228 385 q 238 435 236 424 q 171 435 201 438 q 106 431 140 433 q 58 442 76 429 q 37 472 40 454 q 47 506 33 489 q 93 529 60 522 q 178 538 133 538 q 263 542 222 539 q 275 581 267 554 q 292 635 283 607 q 310 687 301 663 q 325 718 319 711 q 349 738 335 732 q 374 741 363 743 q 394 728 386 739 q 399 696 401 717 q 385 622 393 660 q 371 549 378 585 z "},",":{"ha":293,"x_min":-33,"x_max":144,"o":"m 140 267 q 126 233 138 254 q 98 190 115 211 q 60 149 81 168 q 21 124 40 131 q -15 125 4 117 q -31 153 -33 133 q -26 164 -29 158 q -19 175 -22 169 q -1 209 -10 189 q 17 250 8 229 q 33 288 25 271 q 49 310 42 304 q 76 320 60 318 q 109 317 93 322 q 135 300 125 313 q 140 267 144 288 z "},"-":{"ha":626,"x_min":42,"x_max":518,"o":"m 472 517 q 507 502 496 514 q 518 476 518 490 q 507 447 518 461 q 474 428 496 433 q 449 426 472 428 q 390 421 425 424 q 313 415 354 418 q 234 408 271 411 q 171 403 197 406 q 140 401 144 401 q 72 414 96 401 q 45 442 49 426 q 58 474 42 458 q 111 497 75 490 q 293 519 203 514 q 472 517 383 525 z "},".":{"ha":357,"x_min":40,"x_max":144,"o":"m 92 157 q 57 167 74 157 q 40 199 40 178 q 60 235 40 221 q 99 249 79 249 q 131 235 118 249 q 144 203 144 222 q 128 169 144 182 q 92 157 111 157 z "},"/":{"ha":428,"x_min":-69,"x_max":569,"o":"m 569 1118 q 485 963 532 1038 q 392 811 438 888 q 219 496 296 651 q 76 181 143 340 q 47 106 58 138 q 35 61 35 74 q 35 46 35 50 q 38 39 36 42 q 40 33 39 36 q 42 19 42 29 q 32 -8 42 3 q 9 -22 22 -18 q -19 -22 -4 -25 q -46 -10 -35 -19 q -67 24 -64 6 q -62 64 -69 42 q 74 444 -14 247 q 299 868 163 642 q 322 906 306 881 q 357 963 338 932 q 399 1028 376 994 q 441 1090 421 1061 q 478 1138 461 1118 q 506 1164 496 1158 q 551 1160 532 1176 q 569 1118 569 1144 z "},";":{"ha":369,"x_min":-33,"x_max":276,"o":"m 140 267 q 126 233 138 254 q 98 190 115 211 q 60 149 81 168 q 21 124 40 131 q -15 125 4 117 q -31 153 -33 133 q -26 164 -29 158 q -19 175 -22 169 q -1 209 -10 189 q 17 250 8 229 q 33 288 25 271 q 49 310 42 304 q 76 320 60 318 q 109 317 93 322 q 135 300 125 313 q 140 267 144 288 m 276 568 q 267 538 276 556 q 244 503 258 519 q 215 475 231 486 q 185 464 199 464 q 147 477 164 464 q 131 513 131 490 q 138 548 131 529 q 158 583 146 567 q 188 608 171 599 q 222 618 204 618 q 259 603 242 618 q 276 568 276 588 z "},"<":{"ha":469,"x_min":32,"x_max":428,"o":"m 158 390 q 188 374 165 386 q 239 347 211 363 q 295 311 267 331 q 342 273 324 292 q 365 237 361 254 q 350 208 369 219 q 306 201 331 197 q 265 221 299 203 q 192 261 232 239 q 119 304 153 283 q 76 331 85 325 q 38 380 44 356 q 64 436 32 404 q 132 499 96 469 q 205 558 168 529 q 278 618 242 588 q 347 682 314 649 q 360 697 354 689 q 374 708 365 704 q 413 715 400 722 q 427 690 426 708 q 418 649 428 672 q 392 608 408 626 q 278 497 336 550 q 158 390 219 443 z "},"=":{"ha":585,"x_min":31,"x_max":472,"o":"m 108 597 q 271 600 210 599 q 366 601 332 601 q 415 599 400 601 q 440 593 431 597 q 466 574 460 585 q 470 553 472 564 q 458 531 468 542 q 435 513 449 521 q 410 510 432 511 q 356 509 388 510 q 286 508 324 508 q 215 507 249 507 q 156 507 181 507 q 122 508 131 507 q 80 522 94 510 q 64 549 65 533 q 74 578 63 564 q 108 597 85 593 m 39 365 q 40 399 31 385 q 65 422 49 414 q 99 430 75 426 q 153 435 122 433 q 219 437 183 436 q 286 438 254 438 q 344 436 318 438 q 385 435 371 435 q 417 424 407 433 q 428 402 428 414 q 417 378 428 390 q 388 361 407 367 q 330 351 360 354 q 272 346 300 349 q 216 339 251 344 q 145 332 181 333 q 80 337 110 331 q 39 365 50 343 z "},">":{"ha":585,"x_min":21,"x_max":482,"o":"m 363 479 q 337 502 356 485 q 295 542 318 519 q 250 591 272 565 q 215 640 228 617 q 201 680 201 663 q 224 704 201 697 q 268 700 244 710 q 287 685 272 697 q 321 653 301 672 q 363 612 340 633 q 404 570 385 590 q 438 535 424 550 q 457 515 453 519 q 481 458 482 483 q 442 410 481 432 q 359 367 401 386 q 274 328 317 347 q 188 290 231 310 q 104 246 144 269 q 89 235 97 242 q 72 228 81 229 q 31 231 42 221 q 25 258 21 240 q 44 297 29 276 q 81 329 60 317 q 219 406 149 369 q 363 479 290 443 z "},"¢":{"ha":811,"x_min":0,"x_max":756,"o":"m 304 329 q 481 381 396 354 q 649 454 565 407 q 692 459 674 468 q 715 429 711 450 q 700 381 718 408 q 633 333 682 354 q 492 279 563 303 q 347 233 421 256 q 285 200 304 219 q 257 136 267 181 q 246 78 250 104 q 242 28 242 53 q 247 -21 242 4 q 265 -76 253 -46 q 269 -103 272 -92 q 251 -125 267 -115 q 217 -131 232 -137 q 190 -108 203 -124 q 159 -40 167 -79 q 152 40 151 -1 q 160 124 153 82 q 172 199 167 165 q 153 206 163 203 q 135 213 144 210 q 39 274 69 236 q 4 359 8 313 q 17 456 0 406 q 65 557 35 507 q 187 700 118 640 q 343 803 256 760 q 394 837 374 818 q 431 885 414 856 q 448 919 436 896 q 474 969 460 942 q 507 1022 489 996 q 544 1067 525 1049 q 582 1092 563 1086 q 619 1086 601 1099 q 633 1058 635 1075 q 622 1022 632 1040 q 600 988 613 1004 q 582 961 588 971 q 558 918 568 940 q 536 872 547 896 q 623 867 582 871 q 694 853 664 864 q 740 822 724 842 q 750 771 756 803 q 721 718 743 728 q 670 715 699 708 q 611 733 642 721 q 558 747 581 746 q 480 728 507 750 q 435 661 453 707 q 371 495 403 578 q 304 329 339 413 m 326 664 q 258 613 293 643 q 193 548 222 583 q 143 473 164 513 q 118 392 122 433 q 135 331 113 343 q 201 315 158 318 q 264 490 233 403 q 326 664 294 576 z "},"¥":{"ha":824,"x_min":-53,"x_max":768,"o":"m 251 458 q 213 442 243 454 q 151 417 183 431 q 92 393 119 404 q 63 382 65 382 q 18 394 26 381 q 18 426 10 408 q 45 463 26 444 q 82 489 64 481 q 167 525 124 508 q 253 560 210 542 q 225 613 244 575 q 183 699 206 651 q 140 800 161 747 q 108 899 119 853 q 99 978 97 944 q 125 1022 101 1013 q 152 1024 140 1028 q 174 1011 164 1021 q 190 988 183 1001 q 200 963 196 975 q 250 835 226 900 q 300 708 274 771 q 326 655 311 681 q 353 603 340 629 q 435 699 396 649 q 513 802 475 750 q 590 906 551 854 q 671 1004 628 957 q 705 1030 686 1021 q 746 1025 724 1039 q 768 990 768 1011 q 756 947 768 968 q 726 903 744 929 q 683 845 707 876 q 635 781 660 814 q 590 719 611 749 q 556 664 569 689 q 539 624 542 639 q 590 626 564 625 q 640 629 615 628 q 669 628 653 629 q 701 623 686 628 q 725 608 715 618 q 733 581 735 599 q 715 553 732 558 q 682 546 699 549 q 581 531 631 539 q 479 513 531 524 q 446 502 458 508 q 426 486 433 496 q 413 463 418 476 q 399 432 407 450 q 444 438 422 435 q 489 444 465 442 q 542 447 515 446 q 596 446 569 449 q 616 436 607 446 q 628 414 625 426 q 624 389 631 401 q 597 371 617 376 q 502 352 553 358 q 403 334 451 346 q 316 298 356 322 q 254 224 276 274 l 175 44 q 163 22 169 33 q 146 0 156 10 q 124 -15 136 -10 q 99 -14 113 -19 q 74 10 81 -7 q 69 51 68 28 q 78 101 71 75 q 96 153 86 128 q 115 200 106 179 q 129 233 124 221 q 94 228 108 233 q 67 217 79 224 q 42 203 54 210 q 13 192 29 196 q -20 192 -4 188 q -44 208 -36 197 q -51 233 -53 218 q -33 263 -50 247 q 13 296 -12 281 q 67 324 39 311 q 123 348 94 338 q 176 368 151 358 q 227 401 213 381 q 251 458 242 422 z "},"×":{"ha":613,"x_min":26,"x_max":519,"o":"m 303 465 q 339 438 319 451 q 377 409 358 424 q 413 378 396 394 q 442 344 431 363 q 450 317 451 329 q 440 296 449 304 q 419 285 432 288 q 392 290 406 283 q 352 313 374 299 q 308 342 331 326 q 265 374 286 358 q 224 401 243 390 q 165 340 192 372 q 107 278 138 307 q 73 260 90 261 q 44 269 56 260 q 29 295 32 279 q 38 329 26 311 q 87 393 60 363 q 140 454 114 424 q 122 476 133 464 q 102 501 111 488 q 88 529 93 515 q 90 557 83 543 q 124 570 107 571 q 159 563 142 569 q 193 544 176 556 q 225 524 210 532 q 281 567 240 536 q 367 626 321 597 q 452 667 413 654 q 507 657 492 681 q 509 624 519 638 q 483 600 499 611 q 390 536 438 567 q 303 465 343 506 z "},"÷":{"ha":604,"x_min":60,"x_max":497,"o":"m 267 401 q 191 399 229 400 q 115 401 153 399 q 78 412 92 403 q 62 433 64 421 q 70 456 60 444 q 106 472 81 468 q 180 483 142 479 q 254 486 218 486 q 355 483 303 486 q 454 472 407 481 q 487 457 476 468 q 494 434 497 446 q 476 413 492 422 q 432 404 461 404 l 267 401 m 297 550 q 260 556 275 543 q 242 588 246 569 q 249 624 239 607 q 283 643 258 640 q 319 631 304 643 q 336 604 333 619 q 331 573 339 589 q 297 550 322 557 m 185 300 q 205 333 188 322 q 240 341 222 343 q 268 324 257 339 q 268 279 279 308 q 247 258 263 265 q 217 253 232 251 q 192 267 203 256 q 185 300 182 278 z "},"O":{"ha":1140,"x_min":-4,"x_max":1074,"o":"m 210 282 q 47 317 99 276 q 6 467 -4 357 q 49 602 11 529 q 147 749 86 675 q 285 889 207 822 q 450 1006 364 956 q 625 1083 536 1056 q 797 1103 714 1110 q 935 1060 881 1094 q 1022 976 990 1026 q 1063 867 1053 926 q 1069 750 1074 808 q 1021 535 1060 642 q 917 333 982 429 q 765 153 853 236 q 568 13 676 71 q 453 -37 515 -15 q 325 -53 392 -58 q 249 -31 279 -49 q 200 14 218 -12 q 176 73 182 40 q 172 139 169 106 q 187 210 175 175 q 210 282 199 246 m 261 397 q 294 448 272 413 q 343 519 317 483 q 397 583 369 556 q 446 608 425 610 q 476 595 461 606 q 489 571 490 585 q 481 549 488 563 q 466 522 475 536 q 449 493 457 507 q 435 472 440 479 q 492 494 456 474 q 568 544 528 514 q 647 608 608 574 q 711 669 685 642 q 751 693 731 690 q 790 668 771 696 q 794 627 803 650 q 769 581 785 604 q 685 495 739 539 q 572 413 632 451 q 450 342 511 374 q 343 294 389 311 q 309 216 322 260 q 292 133 296 172 q 290 107 290 121 q 294 81 290 93 q 307 59 297 68 q 336 49 317 50 q 420 60 374 46 q 513 98 467 75 q 598 148 558 121 q 661 196 638 175 q 865 451 793 311 q 951 751 938 592 q 953 826 954 783 q 940 906 953 868 q 899 973 928 944 q 817 1006 869 1001 q 660 989 740 1013 q 506 922 581 965 q 365 818 432 878 q 247 693 299 758 q 165 562 196 628 q 128 439 133 496 q 138 404 126 419 q 179 386 150 389 q 221 388 201 383 q 261 397 240 393 z "},"N":{"ha":1138,"x_min":-114,"x_max":1331,"o":"m 722 226 q 756 298 732 249 q 815 413 781 347 q 890 556 849 479 q 974 709 931 632 q 1063 857 1018 786 q 1147 983 1107 928 q 1222 1070 1188 1038 q 1279 1103 1256 1103 q 1314 1088 1297 1103 q 1331 1057 1331 1074 q 1326 1040 1331 1049 q 1318 1025 1321 1032 q 1158 816 1238 926 q 1006 579 1078 706 q 872 310 933 453 q 769 6 811 168 q 751 -16 765 -10 q 719 -22 736 -22 q 694 -17 704 -22 q 674 -3 685 -11 q 631 76 653 26 q 587 188 608 125 q 547 323 565 251 q 516 469 529 394 q 498 616 503 543 q 499 753 493 689 l 497 813 q 454 749 483 793 q 386 647 425 706 q 301 518 347 588 q 206 378 254 449 q 113 244 158 308 q 28 129 67 179 q -37 49 -10 79 q -75 19 -64 19 q -97 26 -86 19 q -114 61 -114 36 q -99 99 -114 76 q -75 138 -85 122 q 152 483 38 313 q 382 828 267 654 q 479 987 431 903 q 588 1138 528 1071 q 608 1158 597 1149 q 633 1167 618 1167 q 669 1151 654 1167 q 683 1115 683 1135 q 678 1073 683 1099 q 665 1015 672 1047 q 640 843 650 940 q 631 640 629 746 q 653 426 633 533 q 722 226 674 319 z "},"M":{"ha":1226,"x_min":-106,"x_max":1525,"o":"m 596 385 q 1008 757 810 564 q 1392 1153 1206 950 q 1410 1170 1400 1160 q 1429 1190 1419 1181 q 1449 1206 1439 1199 q 1469 1213 1460 1213 q 1507 1199 1489 1213 q 1525 1165 1525 1185 q 1501 1118 1525 1154 q 1440 1028 1478 1082 q 1352 904 1401 974 q 1251 758 1303 835 q 1149 599 1199 681 q 1062 435 1100 517 q 1000 278 1024 354 q 976 139 976 203 q 988 100 976 114 q 999 71 999 86 q 978 31 999 46 q 933 15 957 15 q 901 29 914 15 q 882 62 889 43 q 872 101 875 81 q 869 135 869 121 q 883 262 869 199 q 919 386 897 325 q 969 506 942 447 q 1022 622 996 565 q 963 589 1004 622 q 868 506 922 556 q 753 399 814 457 q 635 292 692 342 q 530 210 578 243 q 456 176 482 176 q 406 203 422 176 q 382 265 389 229 q 374 338 375 300 q 374 396 374 375 q 380 528 374 463 q 394 660 386 593 q 389 711 401 707 q 350 672 376 715 q 285 564 322 629 q 206 426 247 499 q 123 280 165 353 q 44 149 81 207 q -20 54 7 90 q -60 18 -47 18 q -90 31 -74 18 q -106 58 -106 43 q -83 110 -106 64 q -22 225 -60 156 q 66 382 17 294 q 167 560 115 469 q 270 739 219 651 q 362 896 321 826 q 431 1010 403 965 q 465 1060 458 1054 q 482 1070 475 1067 q 501 1074 489 1074 q 538 1053 531 1074 q 546 1010 546 1033 q 528 859 546 935 q 503 710 511 783 q 488 583 496 647 q 475 453 479 518 q 473 357 472 390 q 485 317 474 324 q 522 328 496 311 q 596 385 549 346 z "},"L":{"ha":993,"x_min":-31,"x_max":871,"o":"m 189 149 q 344 194 265 169 q 501 242 422 218 q 659 287 581 267 q 815 319 738 307 q 858 305 846 325 q 871 260 871 285 q 864 236 871 246 q 847 219 857 226 q 806 203 840 215 q 719 176 771 192 q 601 143 667 161 q 468 107 536 125 q 333 72 400 89 q 213 42 267 56 q 123 22 160 29 q 76 14 86 14 q -1 42 28 14 q -31 119 -31 71 q -7 219 -31 157 q 56 358 17 282 q 147 519 96 435 q 254 687 199 604 q 365 844 310 769 q 469 977 421 919 q 553 1069 517 1035 q 607 1103 590 1103 q 642 1087 626 1103 q 658 1051 658 1071 q 627 997 658 1040 q 546 887 596 953 q 435 740 496 821 q 316 575 375 658 q 207 411 257 492 q 129 267 157 331 q 101 192 108 219 q 101 151 94 164 q 130 138 108 138 q 189 149 151 139 z "},"K":{"ha":1089,"x_min":-57,"x_max":1238,"o":"m 449 513 q 503 426 467 478 q 585 326 539 374 q 683 243 631 278 q 788 208 736 208 q 823 213 808 208 q 851 224 838 218 q 876 236 864 231 q 904 242 889 242 q 930 232 919 242 q 940 208 940 222 q 874 147 921 167 q 775 128 826 128 q 651 155 707 128 q 550 224 596 182 q 465 315 504 265 q 392 410 426 365 q 358 443 378 428 q 319 463 339 458 q 281 458 299 468 q 251 414 263 447 q 222 360 242 394 q 181 282 203 325 q 135 192 158 239 q 92 104 111 146 q 60 30 72 63 q 47 -18 47 -3 q 52 -44 47 -32 q 57 -69 57 -57 q 42 -92 57 -83 q 10 -100 28 -100 q -37 -84 -17 -100 q -57 -44 -57 -68 q -38 62 -57 1 q 8 185 -19 122 q 64 306 35 247 q 115 410 93 365 q 94 433 103 421 q 85 461 85 446 q 97 485 85 472 q 119 504 108 499 q 188 560 149 513 q 272 675 228 608 q 364 817 315 742 q 460 957 413 893 q 554 1063 508 1021 q 642 1106 600 1106 q 689 1065 689 1106 q 663 1030 689 1064 q 601 946 638 996 q 522 839 564 896 q 449 735 481 782 q 424 650 410 676 q 507 649 438 624 q 669 721 582 676 q 842 815 757 765 q 1005 913 928 864 q 1138 999 1082 961 q 1187 1022 1168 1019 q 1218 1011 1206 1024 q 1233 980 1229 1000 q 1210 931 1238 960 q 1117 855 1178 896 q 981 772 1056 814 q 825 688 907 729 q 669 613 743 647 q 537 551 596 578 q 449 513 478 525 z "},"J":{"ha":982,"x_min":-4,"x_max":1260,"o":"m 868 858 q 663 851 767 856 q 458 851 560 847 q 408 854 442 851 q 335 862 375 857 q 253 874 296 867 q 177 892 211 882 q 122 917 143 903 q 101 951 100 932 q 115 978 101 968 q 144 989 128 989 q 302 973 224 986 q 461 957 381 960 q 578 953 517 954 q 699 954 639 953 q 819 961 760 956 q 932 978 878 967 q 956 1017 940 992 q 988 1067 971 1042 q 1025 1110 1006 1092 q 1064 1126 1044 1128 q 1093 1112 1081 1126 q 1106 1083 1106 1097 q 1099 1063 1106 1075 q 1086 1037 1093 1050 q 1072 1010 1079 1024 q 1060 989 1064 997 l 1113 988 q 1158 992 1136 986 q 1204 996 1179 997 q 1244 983 1228 994 q 1258 947 1260 971 q 1240 910 1257 922 q 1195 893 1222 899 q 1135 885 1168 888 q 1072 876 1103 882 q 1013 856 1040 869 q 972 817 986 843 q 894 672 942 761 q 788 484 847 583 q 656 284 728 385 q 506 103 585 183 q 344 -26 428 22 q 174 -72 260 -75 q 87 -47 121 -71 q 32 10 53 -24 q 3 86 11 44 q -3 168 -4 128 q 10 241 -1 196 q 43 338 22 286 q 92 440 64 389 q 151 533 119 492 q 219 601 183 575 q 290 625 254 626 q 330 613 314 625 q 344 578 346 601 q 328 557 344 575 q 287 510 311 539 q 233 442 263 481 q 178 357 204 403 q 135 260 153 311 q 115 156 117 208 q 117 118 115 139 q 125 78 118 97 q 147 47 132 60 q 188 32 161 33 q 315 77 246 29 q 454 201 383 125 q 593 373 525 278 q 717 560 661 468 q 814 733 774 653 q 868 858 854 813 z "},"I":{"ha":993,"x_min":-64,"x_max":1322,"o":"m 960 967 q 689 583 824 775 q 431 189 554 390 l 483 181 q 551 180 517 178 q 619 185 585 182 q 687 191 653 189 q 756 190 721 193 q 785 185 769 189 q 814 175 801 182 q 833 156 826 168 q 839 125 840 143 q 808 88 836 101 q 736 67 779 75 q 640 57 693 60 q 538 53 588 54 q 448 53 489 53 q 388 53 407 54 q 349 36 364 51 q 324 -1 335 21 q 304 -49 313 -24 q 285 -94 296 -74 q 261 -127 275 -114 q 226 -139 247 -140 q 199 -123 211 -137 q 189 -93 188 -108 q 201 -35 192 -64 q 217 21 210 -7 l 214 35 l 185 39 q 136 35 160 40 q 91 23 113 31 q 49 10 69 15 q 8 6 28 4 q -44 26 -24 8 q -61 78 -64 44 q -37 108 -60 94 q 20 131 -14 121 q 96 149 54 142 q 176 161 138 156 q 247 169 215 167 q 294 175 279 172 q 542 578 415 381 q 813 964 668 775 l 775 968 q 683 971 729 972 q 590 968 636 969 q 497 966 543 967 q 404 969 450 965 q 385 974 396 969 q 367 986 375 979 q 353 1002 358 993 q 349 1021 347 1011 q 358 1047 350 1038 q 378 1063 367 1057 q 404 1073 390 1069 q 431 1078 418 1076 q 619 1089 513 1083 q 838 1098 726 1094 q 1057 1101 950 1101 q 1247 1093 1164 1100 q 1299 1078 1276 1090 q 1319 1029 1322 1065 q 1294 999 1318 1011 q 1236 981 1271 988 q 1160 972 1201 975 q 1078 968 1118 969 q 1007 967 1039 967 q 960 967 975 967 z "},"H":{"ha":1407,"x_min":1,"x_max":1383,"o":"m 407 549 q 665 554 538 551 q 924 560 793 557 q 969 625 938 579 q 1039 728 1000 671 q 1122 848 1078 786 q 1207 961 1165 910 q 1283 1045 1249 1013 q 1339 1078 1318 1078 q 1369 1065 1356 1076 q 1382 1039 1383 1053 q 1361 997 1382 1031 q 1308 917 1340 964 q 1238 816 1276 871 q 1165 710 1200 761 q 1101 619 1129 660 q 1064 560 1074 579 l 1129 556 q 1201 560 1165 554 q 1271 567 1236 567 q 1321 551 1299 565 q 1343 513 1343 536 q 1322 482 1343 493 q 1269 466 1301 471 q 1197 460 1236 461 q 1120 460 1157 458 q 1053 463 1083 461 q 1008 465 1022 465 l 990 449 q 876 272 928 361 q 779 89 824 183 q 768 52 772 71 q 754 17 764 33 q 735 -2 750 7 q 710 -10 721 -11 q 688 -3 696 -10 q 675 12 679 3 q 670 31 671 21 q 669 50 669 42 q 694 134 671 79 q 747 249 717 189 q 809 364 778 308 q 857 451 840 419 q 811 456 833 456 q 765 458 789 457 q 556 453 658 461 q 349 449 453 446 q 312 398 335 432 q 264 321 289 364 q 213 231 239 278 q 165 139 186 183 q 131 58 144 94 q 117 3 117 22 q 101 -35 117 -18 q 61 -53 86 -53 q 34 -43 46 -53 q 15 -20 22 -33 q 5 8 8 -7 q 1 33 1 22 q 21 101 1 61 q 63 185 40 140 q 105 277 86 229 q 125 371 124 325 q 119 433 128 404 q 90 438 106 435 q 60 446 74 440 q 37 461 46 451 q 28 488 28 471 q 42 518 28 510 q 80 528 57 526 q 131 529 103 531 q 188 531 160 528 q 242 546 217 535 q 286 583 268 557 q 328 650 297 603 q 402 757 360 697 q 494 881 444 817 q 590 999 543 946 q 678 1087 638 1053 q 743 1121 718 1121 q 776 1108 761 1121 q 790 1081 790 1096 q 765 1043 790 1078 q 700 956 739 1008 q 615 840 661 903 q 525 718 568 776 q 449 614 482 660 q 407 549 417 568 z "},"G":{"ha":1172,"x_min":-18,"x_max":1226,"o":"m 1104 1032 q 983 1002 1053 1026 q 834 939 914 978 q 669 849 754 900 q 503 740 583 799 q 349 617 422 681 q 222 491 276 554 q 136 367 168 428 q 104 251 104 306 q 116 199 104 218 q 148 169 128 179 q 194 157 168 160 q 249 154 221 154 q 392 174 313 154 q 543 231 471 193 q 669 322 615 268 q 736 443 724 375 l 713 449 q 657 442 685 449 q 601 426 629 435 q 546 411 574 418 q 492 404 518 404 q 469 406 481 404 q 446 411 457 407 q 428 423 435 415 q 421 443 421 431 l 435 476 q 499 501 449 486 q 617 533 549 517 q 763 568 685 550 q 911 600 840 586 q 1036 623 982 614 q 1111 632 1090 632 q 1149 615 1133 632 q 1165 578 1165 597 q 1141 533 1165 549 q 1093 511 1117 518 q 945 431 1019 489 q 804 300 871 374 q 683 147 738 226 q 597 0 629 67 q 591 -31 593 -11 q 585 -69 589 -50 q 573 -103 581 -89 q 550 -118 565 -118 q 496 -99 517 -118 q 475 -46 475 -81 q 488 21 475 -12 q 513 82 501 54 q 443 69 476 78 q 376 53 410 61 q 308 38 342 44 q 238 32 274 32 q 140 46 186 32 q 58 88 93 60 q 3 158 24 117 q -18 253 -18 199 q 43 445 -18 343 q 203 648 104 547 q 424 841 301 749 q 671 1004 547 933 q 906 1117 794 1075 q 1092 1160 1017 1160 q 1138 1153 1114 1160 q 1181 1135 1161 1147 q 1213 1103 1200 1122 q 1226 1058 1226 1085 q 1217 1018 1226 1040 q 1193 976 1208 996 q 1159 944 1178 957 q 1121 931 1140 931 q 1097 943 1103 931 q 1093 972 1092 956 q 1099 1006 1094 989 q 1104 1032 1103 1024 z "},"F":{"ha":896,"x_min":-60,"x_max":1400,"o":"m 569 928 q 463 913 519 922 q 356 906 406 904 q 329 923 340 906 q 322 956 318 940 q 362 995 328 978 q 449 1026 396 1013 q 568 1051 501 1040 q 706 1069 635 1061 q 847 1081 776 1076 q 978 1089 918 1086 q 1083 1092 1038 1092 q 1147 1093 1128 1093 q 1217 1093 1172 1093 q 1303 1085 1261 1093 q 1373 1058 1346 1078 q 1389 999 1400 1038 q 1360 956 1382 974 q 1310 939 1338 939 q 1199 952 1251 940 q 1089 965 1147 964 q 933 960 1010 967 q 778 946 857 954 q 690 872 735 914 q 601 781 644 829 q 520 684 558 733 q 454 592 482 635 q 577 592 517 590 q 696 594 638 594 q 733 592 713 594 q 772 584 754 590 q 799 565 789 578 q 806 532 810 553 q 781 490 797 503 q 743 474 764 478 q 700 473 722 471 q 661 475 678 475 q 531 466 597 476 q 401 457 464 456 q 286 392 332 457 q 253 344 274 372 q 210 282 233 315 q 163 214 188 249 q 119 147 139 179 q 83 86 99 114 q 64 40 68 58 q 63 8 61 25 q 60 -24 65 -8 q 33 -52 56 -43 q -4 -61 11 -61 q -51 -28 -43 -60 q -49 36 -60 3 q -31 79 -44 50 q 2 145 -17 108 q 44 222 21 182 q 88 300 67 263 q 128 368 110 338 q 157 415 146 399 q 134 424 149 419 q 106 437 119 429 q 83 453 92 444 q 78 475 75 463 q 93 503 81 490 q 117 528 106 517 q 159 541 135 536 q 208 551 183 546 q 253 565 232 556 q 288 593 275 574 q 425 762 351 679 q 569 928 499 844 z "},"E":{"ha":1265,"x_min":-15,"x_max":1293,"o":"m 361 529 q 326 551 344 539 q 290 577 307 563 q 263 610 274 592 q 251 651 251 628 q 299 763 251 710 q 423 863 347 817 q 591 948 499 910 q 774 1013 683 986 q 942 1055 864 1040 q 1064 1069 1019 1069 q 1128 1066 1089 1069 q 1204 1050 1168 1063 q 1267 1015 1240 1038 q 1293 956 1293 993 q 1275 914 1293 932 q 1233 896 1257 896 q 1209 903 1225 896 q 1172 920 1193 911 q 1126 937 1151 929 q 1072 944 1100 944 q 951 930 1026 944 q 793 890 876 915 q 627 831 710 865 q 483 757 544 796 q 416 699 436 726 q 401 653 396 672 q 438 625 406 633 q 526 624 469 617 q 593 635 558 628 q 664 651 628 643 q 736 664 700 658 q 807 669 772 669 q 846 650 832 669 q 860 608 860 631 q 827 569 860 589 q 741 528 794 550 q 619 483 688 506 q 481 434 551 460 q 342 380 410 408 q 220 319 274 351 q 134 252 167 288 q 101 178 101 217 q 140 124 101 140 q 240 108 178 108 q 384 119 303 107 q 551 149 465 131 q 720 189 636 168 q 872 228 804 210 q 987 258 940 246 q 1044 271 1033 271 q 1084 254 1069 271 q 1099 217 1099 238 q 1075 182 1099 200 q 1011 147 1051 164 q 872 98 949 121 q 713 56 794 75 q 549 24 631 38 q 394 2 467 10 q 265 -7 322 -6 q 175 -3 207 -8 q 104 17 139 4 q 43 52 69 31 q 1 105 17 74 q -15 178 -15 136 q 24 301 -15 247 q 122 398 64 356 q 244 472 179 440 q 361 529 310 504 z "},"D":{"ha":1404,"x_min":-156,"x_max":1419,"o":"m 567 867 q 517 848 544 861 q 463 820 489 835 q 413 795 436 806 q 375 786 389 785 q 349 802 363 786 q 339 833 336 818 q 381 897 344 867 q 465 950 417 926 q 561 990 513 974 q 639 1011 610 1006 q 706 1037 669 1017 q 776 1078 743 1057 q 834 1115 808 1099 q 871 1129 860 1131 q 893 1119 885 1128 q 905 1099 901 1111 q 908 1072 908 1086 q 907 1047 908 1058 q 1015 1028 956 1039 q 1133 1001 1074 1018 q 1247 960 1193 985 q 1341 897 1301 935 q 1400 808 1381 860 q 1408 685 1419 756 q 1343 520 1396 597 q 1209 377 1290 443 q 1024 255 1128 311 q 808 154 921 199 q 578 77 696 110 q 353 24 461 44 q 150 -6 244 3 q -12 -8 56 -14 q -54 -4 -29 -7 q -102 6 -79 -1 q -140 27 -125 13 q -151 65 -156 42 q -135 98 -149 88 q -105 112 -122 108 q -69 114 -87 115 q -35 111 -50 113 q 3 110 -18 110 q 47 111 25 110 q 89 116 68 113 q 126 126 110 119 q 208 319 157 224 q 319 509 260 415 q 444 693 379 603 q 567 867 508 783 m 239 132 q 403 165 304 142 q 613 223 501 188 q 838 305 725 258 q 1046 410 951 351 q 1204 540 1140 469 q 1281 694 1268 611 q 1269 766 1286 735 q 1222 821 1253 797 q 1151 861 1192 844 q 1067 888 1110 878 q 985 904 1025 899 q 915 913 944 910 q 862 915 888 914 q 811 913 836 917 q 763 897 786 908 q 719 858 740 885 q 585 686 653 774 q 453 508 517 599 q 335 324 390 418 q 239 132 281 229 z "},"C":{"ha":1163,"x_min":-4,"x_max":1264,"o":"m 993 924 q 862 872 933 906 q 713 794 790 839 q 558 696 636 750 q 410 583 481 642 q 281 465 340 525 q 181 346 221 404 q 133 260 151 303 q 116 184 114 218 q 146 129 118 150 q 238 108 174 108 q 360 126 289 108 q 509 169 432 143 q 663 226 586 196 q 804 283 740 257 q 912 327 868 310 q 967 344 956 344 q 995 331 982 344 q 1008 303 1008 317 q 988 267 1008 281 q 817 174 907 215 q 639 99 728 132 q 466 45 550 67 q 313 13 382 24 q 202 5 258 4 q 100 23 146 6 q 25 77 54 40 q -4 176 -4 114 q 31 315 -4 243 q 124 462 65 388 q 263 608 183 536 q 431 747 342 681 q 613 869 519 813 q 795 966 707 925 q 961 1030 883 1007 q 1097 1053 1039 1053 q 1151 1047 1122 1053 q 1206 1029 1181 1042 q 1247 996 1231 1017 q 1264 944 1264 975 q 1236 871 1264 910 q 1165 793 1208 832 q 1066 719 1121 754 q 956 656 1011 683 q 853 613 901 629 q 774 596 804 596 q 740 611 750 596 q 731 645 731 626 q 741 679 732 664 q 765 694 750 694 q 901 751 826 719 q 1038 824 975 783 q 1110 884 1090 858 q 1121 924 1129 910 q 1079 938 1113 938 q 993 924 1046 939 z "},"B":{"ha":1157,"x_min":-82,"x_max":1324,"o":"m 679 467 q 760 432 710 453 q 855 383 810 411 q 930 318 900 354 q 950 238 960 282 q 880 143 938 182 q 740 78 822 104 q 561 38 658 53 q 372 17 464 24 q 206 10 281 11 q 93 13 131 10 q 52 18 75 14 q 7 28 29 22 q -35 44 -15 35 q -69 63 -56 53 q -77 83 -72 68 q -79 103 -82 97 q -60 128 -75 121 q -24 137 -44 136 q 15 135 -4 138 q 46 133 35 133 q 284 503 164 324 q 542 860 404 682 q 481 840 515 854 q 412 813 447 826 q 344 788 376 799 q 288 779 311 778 q 260 792 268 781 q 256 822 251 803 q 287 871 261 847 q 349 915 313 894 q 430 953 386 936 q 516 985 474 971 q 595 1011 558 1000 q 653 1028 632 1022 q 691 1045 667 1033 q 740 1069 715 1057 q 783 1088 764 1081 q 810 1096 803 1096 q 850 1084 832 1094 q 892 1071 868 1074 q 950 1072 919 1071 q 1011 1069 981 1072 q 1110 1056 1053 1067 q 1215 1023 1167 1046 q 1294 963 1264 1000 q 1311 872 1324 926 q 1262 782 1301 825 q 1165 699 1222 739 q 1041 625 1108 660 q 906 561 974 590 q 779 508 839 532 q 679 467 719 483 m 444 531 q 567 560 492 539 q 728 611 643 582 q 900 676 814 640 q 1054 751 986 713 q 1147 819 1114 785 q 1181 881 1179 853 q 1149 927 1182 908 q 1043 950 1115 946 q 929 949 988 954 q 813 936 871 943 q 758 908 790 933 q 690 844 726 882 q 617 760 654 806 q 547 671 581 715 q 487 589 514 626 q 444 531 460 551 m 488 389 q 408 388 449 392 q 331 372 367 385 q 243 253 286 313 q 174 125 200 193 l 189 124 q 267 123 218 122 q 376 128 317 124 q 501 140 436 132 q 626 160 567 147 q 764 203 722 179 q 807 251 806 226 q 777 299 808 275 q 698 341 746 322 q 594 372 650 360 q 488 389 538 385 z "},"A":{"ha":1326,"x_min":-24,"x_max":1469,"o":"m 1086 542 q 1136 537 1111 539 q 1183 525 1161 535 q 1215 497 1208 514 q 1213 465 1221 481 q 1184 438 1204 449 q 1138 428 1164 426 q 1101 431 1119 429 q 1065 430 1082 432 q 1033 420 1047 428 q 1011 394 1019 413 q 976 322 999 369 q 933 224 954 275 q 894 126 911 172 q 876 54 878 79 q 884 15 875 33 q 892 -24 893 -4 q 877 -50 892 -39 q 844 -60 863 -61 q 815 -50 828 -58 q 793 -28 801 -42 q 781 1 785 -15 q 778 33 776 17 q 792 128 779 79 q 822 227 804 178 q 858 324 839 276 q 892 417 876 372 q 803 417 856 418 q 695 411 750 417 q 592 396 640 406 q 514 369 543 386 q 449 323 485 353 q 375 259 414 293 q 297 190 336 225 q 220 126 257 154 q 151 80 183 97 q 96 64 119 63 q 69 74 81 64 q 58 100 58 85 q 76 128 58 108 q 122 173 94 147 q 183 227 150 199 q 246 281 215 256 q 301 326 276 307 q 335 354 325 346 q 192 340 265 353 q 51 331 119 326 q -1 346 21 332 q -21 393 -24 360 q 15 433 -19 419 q 101 456 49 447 q 219 469 154 464 q 349 482 285 474 q 471 506 414 490 q 563 549 528 521 q 625 597 581 563 q 730 679 669 632 q 861 782 790 726 q 1004 893 932 838 q 1146 1001 1076 949 q 1272 1093 1215 1053 q 1366 1157 1328 1133 q 1415 1181 1404 1181 q 1453 1163 1438 1179 q 1468 1125 1469 1147 q 1443 1081 1468 1119 q 1379 984 1418 1042 q 1294 858 1340 926 q 1206 727 1249 790 q 1131 613 1164 664 q 1086 542 1097 563 m 711 533 q 764 535 735 533 q 823 538 793 536 q 882 542 853 540 q 936 547 911 544 q 986 623 954 572 q 1053 729 1018 674 q 1122 834 1089 785 q 1176 907 1156 883 q 1063 821 1124 868 q 941 724 1003 774 q 820 626 879 675 q 711 533 761 576 z "},"u":{"ha":733,"x_min":-135,"x_max":774,"o":"m 465 624 q 501 645 486 640 q 540 639 517 650 q 556 627 549 635 q 563 603 563 619 q 550 572 563 593 q 519 522 538 550 q 479 462 500 493 q 442 401 458 431 q 402 290 397 324 q 468 289 407 257 q 525 323 492 301 q 594 368 558 344 q 664 415 629 392 q 724 453 699 438 q 753 458 742 463 q 769 441 765 453 q 771 415 774 429 q 758 392 768 400 q 701 345 739 374 q 617 287 663 317 q 526 230 572 257 q 443 188 479 203 q 345 172 378 161 q 302 217 313 183 q 299 300 292 250 q 322 403 307 350 q 276 369 306 392 q 209 319 246 347 q 133 263 172 292 q 57 209 93 233 q -9 169 21 185 q -56 154 -39 154 q -85 162 -71 154 q -111 181 -100 169 q -128 208 -122 193 q -135 240 -135 224 q -115 296 -135 258 q -65 379 -96 333 q 3 474 -35 425 q 78 562 42 522 q 145 627 114 601 q 193 653 176 653 q 221 644 210 653 q 238 625 232 636 q 242 601 243 614 q 236 579 242 589 q 193 526 221 557 q 135 463 165 496 q 77 399 106 431 q 32 344 49 368 q 16 313 19 325 q 19 296 13 300 q 46 299 26 292 q 99 326 65 306 q 190 394 142 356 q 285 472 238 432 q 379 552 333 513 q 465 624 425 592 z "},"t":{"ha":514,"x_min":-186,"x_max":563,"o":"m 68 565 q 15 553 44 563 q -41 540 -15 543 q -85 549 -67 538 q -100 600 -103 560 q -66 635 -99 621 q 10 657 -33 649 q 95 670 53 665 q 157 679 138 675 q 191 722 169 694 q 240 783 213 750 q 297 851 267 817 q 356 915 328 886 q 407 961 383 943 q 446 978 431 979 q 472 963 461 971 q 483 938 483 956 q 458 896 483 928 q 401 826 433 864 q 339 750 369 788 q 294 692 308 713 q 383 692 339 692 q 472 689 428 692 q 504 688 489 689 q 532 680 519 686 q 553 660 544 674 q 563 625 561 647 q 553 606 563 614 q 532 600 543 599 q 455 603 507 601 q 347 601 403 604 q 244 590 292 599 q 181 563 196 581 q 115 476 143 517 q 60 393 86 435 q 10 308 35 351 q -44 215 -15 264 q -30 185 -37 200 q -24 156 -22 171 q -36 122 -24 140 q -67 88 -49 104 q -103 61 -85 72 q -136 51 -122 50 q -171 67 -156 51 q -185 103 -186 83 q -152 221 -182 157 q -83 348 -122 285 q -1 468 -43 411 q 68 565 40 525 z "},"s":{"ha":422,"x_min":-278,"x_max":447,"o":"m 193 308 q 156 192 190 243 q 71 107 121 142 q -38 53 21 72 q -147 35 -97 35 q -187 38 -164 35 q -230 48 -210 40 q -264 70 -250 56 q -278 108 -278 85 q -239 175 -278 140 q -148 241 -200 210 q -44 298 -96 272 q 36 336 8 324 q 8 392 21 364 q -6 453 -6 421 q 28 531 -6 490 q 107 606 61 571 q 202 663 153 640 q 283 685 251 685 q 315 672 303 685 q 326 640 326 660 q 310 613 326 628 q 267 581 293 597 q 213 546 242 564 q 158 510 183 528 q 115 474 132 492 q 99 442 99 457 q 119 402 99 422 q 158 382 139 382 q 217 390 185 382 q 283 410 249 399 q 352 433 318 421 q 415 453 386 444 q 435 451 428 457 q 445 437 443 446 q 444 418 447 428 q 433 403 440 408 q 381 374 415 389 q 309 347 346 360 q 240 324 272 333 q 193 308 207 314 m -11 224 q -83 186 -49 207 q -147 136 -118 165 q -64 149 -103 136 q 10 186 -25 163 q 74 247 81 233 q -11 224 67 260 z "},"p":{"ha":553,"x_min":-279,"x_max":489,"o":"m 161 543 q 221 590 189 567 q 284 633 253 614 q 344 663 315 651 q 397 674 374 674 q 463 643 438 674 q 489 575 489 613 q 454 463 489 519 q 367 360 419 406 q 254 285 315 314 q 142 257 193 257 q 49 283 93 257 q -36 184 0 235 q -101 81 -72 133 q -153 -22 -131 29 q -196 -121 -175 -74 q -211 -136 -200 -132 q -235 -140 -222 -140 q -248 -137 -240 -140 q -261 -133 -256 -135 q -279 -96 -279 -121 q -256 -18 -279 -76 q -193 117 -232 40 q -106 282 -154 194 q -7 449 -57 369 q 90 592 43 529 q 171 681 136 654 q 198 688 183 690 q 223 676 213 685 q 235 653 233 667 q 225 626 238 639 q 189 581 208 608 q 161 543 169 554 m 108 369 q 170 360 133 353 q 245 388 207 367 q 318 438 283 408 q 372 497 353 468 q 396 565 406 546 q 331 561 386 585 q 273 526 304 549 q 210 475 242 503 q 152 419 179 447 q 108 369 125 392 z "},"o":{"ha":500,"x_min":-99,"x_max":589,"o":"m 561 519 q 583 512 576 521 q 588 491 589 503 q 581 468 588 479 q 563 454 574 457 q 506 440 538 446 q 440 432 474 435 q 372 428 406 429 q 310 428 339 428 q 238 299 278 357 q 144 197 197 240 q 26 140 79 144 q -59 163 -28 135 q -94 244 -90 190 q -65 364 -99 299 q -7 464 -42 411 q 68 560 28 517 q 152 632 108 604 q 236 656 196 660 q 273 646 254 654 q 306 621 292 638 q 327 578 319 604 q 332 517 335 553 q 447 513 389 510 q 561 519 504 515 m 181 532 q 106 455 144 500 q 40 357 68 410 q 11 279 13 307 q 25 245 10 251 q 68 253 40 239 q 125 303 96 268 q 177 370 154 335 q 214 428 200 406 q 190 440 201 429 q 174 466 179 450 q 169 499 168 482 q 181 532 169 517 z "},"n":{"ha":667,"x_min":-137,"x_max":704,"o":"m -57 181 q -77 166 -68 165 q -93 167 -86 167 q -129 187 -121 172 q -135 226 -137 201 q -118 279 -132 244 q -83 356 -104 314 q -36 445 -62 399 q 17 534 -10 492 q 72 611 44 576 q 119 664 99 646 q 151 679 138 679 q 182 668 164 679 q 199 651 193 661 q 203 621 206 642 q 178 577 201 608 q 126 510 156 546 q 72 442 97 475 q 39 392 46 408 q 120 451 81 422 q 196 506 160 481 q 264 552 232 532 q 321 583 296 572 q 369 596 346 594 q 406 588 392 597 q 424 558 421 578 q 413 507 426 538 q 386 447 401 479 q 356 383 371 414 q 328 294 324 319 q 360 268 333 268 q 428 288 386 268 q 515 335 471 308 q 597 392 558 363 q 656 439 636 421 q 660 442 657 440 q 668 446 663 444 q 680 444 674 447 q 694 433 686 442 q 701 408 704 424 q 689 385 697 393 q 628 325 664 357 q 551 264 592 293 q 467 211 510 235 q 386 174 425 188 q 286 157 328 154 q 225 188 244 160 q 213 269 206 215 q 258 404 219 322 q 272 459 278 444 q 224 443 267 474 q 152 386 190 418 q 76 319 114 354 q 4 248 39 283 q -57 181 -31 213 z "},"m":{"ha":968,"x_min":-137,"x_max":1008,"o":"m 199 424 q 158 401 188 425 q 90 340 128 376 q 12 260 51 303 q -57 181 -28 217 q -77 166 -68 165 q -93 167 -86 167 q -129 187 -121 172 q -135 226 -137 201 q -118 279 -132 244 q -83 356 -104 314 q -36 445 -62 399 q 17 534 -10 492 q 72 611 44 576 q 119 664 99 646 q 151 679 138 679 q 182 668 164 679 q 199 651 193 661 q 203 621 206 642 q 181 581 201 608 q 135 524 161 554 q 86 464 110 493 q 56 418 63 435 q 101 452 72 429 q 160 498 129 475 q 221 538 192 521 q 269 553 250 554 q 303 528 296 550 q 309 475 310 506 q 305 413 308 444 q 306 364 301 382 q 368 409 329 381 q 451 470 407 438 q 542 533 496 503 q 625 583 588 564 q 672 597 650 596 q 709 588 694 597 q 727 558 724 579 q 717 507 731 538 q 690 447 706 479 q 660 383 675 414 q 633 294 628 319 q 664 268 638 268 q 733 288 690 268 q 819 335 775 308 q 901 392 863 363 q 960 439 939 421 q 964 442 961 440 q 972 446 967 444 q 984 444 978 447 q 999 433 990 442 q 1005 408 1008 424 q 993 385 1001 393 q 932 325 968 357 q 855 264 896 293 q 772 211 814 235 q 690 174 729 188 q 590 157 632 154 q 529 188 549 160 q 517 269 510 215 q 563 404 524 322 q 576 459 582 444 q 528 443 571 474 q 485 411 510 431 q 435 371 461 392 q 381 330 408 350 q 331 296 354 310 q 287 280 304 281 q 254 279 269 279 q 217 294 229 279 q 201 331 206 310 q 197 378 196 353 q 199 424 197 403 z "},"l":{"ha":600,"x_min":-56,"x_max":715,"o":"m 163 513 q 121 456 143 489 q 82 388 99 422 q 57 323 65 354 q 58 270 49 292 q 96 240 67 249 q 183 246 125 232 q 301 285 238 258 q 424 342 365 313 q 528 400 482 372 q 593 442 574 428 q 615 447 606 450 q 627 433 624 443 q 629 413 631 424 q 621 394 628 401 q 524 319 588 363 q 386 235 461 275 q 233 169 311 196 q 90 141 154 142 q -15 174 26 140 q -56 293 -56 208 q -26 408 -56 344 q 51 540 3 472 q 162 672 99 607 q 293 791 225 736 q 429 885 361 846 q 556 942 497 925 q 644 953 608 957 q 698 930 681 949 q 715 881 715 911 q 693 814 714 850 q 636 739 672 778 q 556 663 600 700 q 463 592 511 625 q 372 533 415 558 q 292 492 328 507 q 235 478 256 478 q 196 488 214 478 q 163 513 178 497 m 219 572 q 283 592 246 575 q 362 633 321 608 q 444 688 403 658 q 521 749 486 718 q 579 807 556 779 q 608 856 603 835 q 547 838 582 854 q 474 798 511 822 q 397 743 436 774 q 324 681 358 713 q 262 622 289 650 q 219 572 235 593 z "},"k":{"ha":738,"x_min":-203,"x_max":781,"o":"m 136 474 q 201 492 165 482 q 272 510 236 501 q 344 526 308 519 q 411 532 379 532 q 439 531 424 532 q 468 524 454 529 q 492 509 482 518 q 506 486 503 500 q 498 455 508 467 q 468 443 488 443 q 395 439 435 443 q 315 426 356 435 q 233 408 274 418 q 158 385 193 397 q 297 315 225 331 q 440 313 368 300 q 584 360 513 325 q 722 440 656 394 q 755 448 744 456 q 772 429 765 440 q 780 401 779 418 q 758 367 781 383 q 557 253 660 292 q 359 213 454 214 q 183 247 264 211 q 47 354 101 282 q 0 292 22 326 q -44 223 -22 257 q -90 157 -67 189 q -136 101 -112 125 q -181 97 -162 86 q -200 119 -199 108 q -180 186 -203 139 q -117 297 -157 233 q -24 433 -78 360 q 88 582 29 507 q 208 726 147 657 q 322 848 268 794 q 418 933 375 901 q 485 965 461 965 q 514 955 503 965 q 529 931 525 944 q 531 901 533 917 q 519 875 528 885 q 438 793 489 839 q 333 695 388 747 q 225 587 278 643 q 136 474 172 531 z "},"j":{"ha":375,"x_min":-901,"x_max":411,"o":"m 10 275 q 50 294 24 281 q 109 324 76 307 q 178 360 142 342 q 251 397 215 379 q 317 427 286 414 q 368 446 347 440 q 394 442 385 450 q 408 422 404 433 q 408 398 411 410 q 397 382 406 386 q 346 358 379 375 q 271 321 313 342 q 185 277 229 300 q 101 234 140 254 q 34 199 63 214 q -3 179 6 185 q -90 109 -43 163 q -190 -16 -136 56 q -306 -166 -244 -87 q -439 -310 -368 -244 q -590 -419 -510 -376 q -760 -462 -669 -462 q -810 -456 -785 -462 q -856 -437 -835 -450 q -889 -403 -876 -424 q -901 -353 -901 -382 q -860 -257 -901 -308 q -753 -152 -818 -206 q -608 -47 -687 -99 q -451 49 -528 6 q -309 126 -374 93 q -210 175 -244 160 q -145 221 -175 190 q -91 289 -115 251 q -47 367 -67 326 q -10 446 -26 408 q 24 513 10 492 q 57 533 38 533 q 103 520 86 533 q 113 483 119 507 q 97 450 111 479 q 64 385 82 421 q 30 317 46 350 q 10 275 14 285 m -587 -296 q -492 -222 -540 -264 q -403 -135 -444 -179 q -328 -49 -361 -90 q -276 25 -296 -7 l -303 19 q -390 -24 -343 -1 q -486 -73 -437 -46 q -581 -131 -535 -100 q -667 -199 -628 -161 q -723 -276 -714 -243 q -716 -323 -732 -308 q -665 -333 -700 -337 q -587 -296 -629 -328 m 149 606 q 117 608 133 603 q 97 629 101 613 q 105 675 93 649 q 135 726 117 701 q 176 769 154 750 q 215 792 199 788 q 247 789 231 794 q 268 768 264 783 q 256 731 269 757 q 222 678 242 706 q 181 630 201 651 q 149 606 160 608 z "},"i":{"ha":436,"x_min":-90,"x_max":476,"o":"m 157 283 q 305 360 238 317 q 410 433 372 404 q 443 449 429 449 q 465 439 457 449 q 474 420 472 432 q 468 394 476 408 q 419 344 454 371 q 338 288 385 317 q 240 233 292 260 q 139 185 188 206 q 66 159 106 169 q -8 152 26 149 q -67 176 -43 156 q -90 246 -90 197 q -71 338 -90 285 q -20 438 -51 390 q 51 517 11 485 q 133 550 92 550 q 165 538 153 550 q 176 508 176 526 q 164 487 176 501 q 133 451 151 472 q 91 401 114 429 q 49 338 68 372 q 25 272 21 290 q 50 253 29 254 q 101 263 71 253 q 157 283 132 274 m 249 710 q 219 718 233 710 q 204 744 204 726 q 221 787 204 764 q 261 830 238 810 q 310 863 285 850 q 354 876 336 876 q 385 867 369 876 q 400 842 400 857 q 381 808 400 831 q 335 764 361 786 q 285 726 310 742 q 249 710 260 710 z "},"h":{"ha":918,"x_min":-125,"x_max":957,"o":"m 247 593 q 317 623 276 608 q 403 646 358 638 q 490 655 447 654 q 567 644 533 656 q 623 608 601 633 q 644 538 644 582 q 634 473 644 504 q 613 411 624 442 q 584 341 597 371 q 571 295 571 311 q 589 281 571 279 q 653 304 607 282 q 714 337 675 314 q 792 383 753 360 q 866 425 832 406 q 911 449 900 444 q 940 449 929 454 q 954 432 951 443 q 953 407 957 421 q 939 385 949 393 q 896 356 926 375 q 826 315 865 338 q 742 269 786 293 q 659 227 699 246 q 588 197 619 208 q 542 185 556 185 q 460 209 483 185 q 433 269 436 233 q 442 347 431 306 q 468 422 454 389 q 473 549 508 524 q 350 533 438 574 q 253 474 300 510 q 163 399 206 439 q 83 319 119 360 q 16 247 46 279 q -35 195 -14 215 q -65 175 -56 175 q -107 194 -89 175 q -125 238 -125 214 q -101 303 -125 258 q -37 406 -78 347 q 55 534 3 465 q 163 672 107 603 q 277 804 219 740 q 385 917 335 868 q 474 996 435 967 q 533 1025 513 1025 q 573 1007 554 1018 q 592 971 592 996 q 569 936 592 963 q 511 872 546 910 q 434 792 476 835 q 353 711 392 750 q 286 640 315 672 q 247 593 257 608 z "},"g":{"ha":583,"x_min":-340,"x_max":607,"o":"m 567 440 q 594 446 586 450 q 604 431 601 442 q 603 405 607 415 q 590 385 600 394 q 484 312 546 347 q 363 243 422 276 q 306 205 335 228 q 250 156 276 182 q 201 101 224 129 q 164 44 179 72 q 100 -74 136 -7 q 20 -206 64 -142 q -75 -325 -24 -271 q -183 -406 -126 -379 q -269 -420 -235 -426 q -322 -389 -304 -414 q -340 -326 -340 -364 q -322 -246 -340 -287 q -253 -144 -299 -194 q -151 -45 -207 -94 q -33 55 -94 4 q 83 158 29 106 q 178 265 138 210 q 236 378 219 319 q 183 335 218 363 q 111 279 149 307 q 38 231 74 251 q -18 210 3 210 q -67 235 -50 210 q -82 293 -85 261 q -62 363 -81 322 q -14 449 -43 404 q 52 537 15 493 q 127 615 89 581 q 203 670 165 649 q 269 692 240 692 q 318 672 297 692 q 360 638 339 653 q 376 642 365 639 q 393 646 388 646 q 430 637 413 646 q 446 603 447 628 q 426 542 444 579 q 383 463 407 506 q 337 376 360 421 q 303 292 314 331 q 372 329 329 306 q 457 377 415 353 q 531 419 499 401 q 567 440 563 438 m 108 381 q 180 444 142 407 q 246 513 218 481 q 266 546 260 529 q 269 573 272 563 q 254 583 267 583 q 218 567 242 583 q 176 532 199 553 q 131 488 153 511 q 90 440 108 464 q 58 396 71 415 q 41 362 46 375 q 42 345 36 349 q 64 350 47 342 q 108 381 81 358 m -167 -251 q -116 -199 -143 -229 q -62 -133 -89 -168 q -10 -59 -35 -97 q 33 15 15 -21 q -28 -37 6 -8 q -93 -99 -61 -67 q -154 -162 -125 -131 q -203 -222 -183 -194 q -230 -270 -225 -254 q -228 -289 -235 -286 q -206 -282 -222 -292 q -167 -251 -189 -272 z "},"a":{"ha":681,"x_min":-108,"x_max":707,"o":"m 329 178 q 279 186 300 178 q 228 281 228 206 q 178 247 207 268 q 116 207 149 226 q 51 173 83 188 q -6 158 19 158 q -45 167 -26 158 q -78 191 -64 176 q -100 224 -92 206 q -108 261 -108 243 q -86 341 -108 297 q -27 428 -64 385 q 56 513 10 472 q 151 587 103 554 q 246 640 200 619 q 326 663 292 660 q 377 641 358 665 q 396 581 396 617 q 401 560 396 568 q 415 543 407 551 q 428 525 422 535 q 433 501 433 515 q 428 482 433 494 q 415 454 424 469 q 397 422 407 439 q 378 392 388 406 q 344 302 335 328 q 418 307 354 276 q 496 348 453 324 q 577 394 539 372 q 644 431 615 415 q 681 446 674 446 q 704 428 701 446 q 700 397 707 410 q 675 372 697 390 q 619 328 653 353 q 544 277 585 304 q 463 228 503 250 q 387 192 422 207 q 329 178 351 178 m 129 325 q 208 388 168 351 q 283 469 249 425 q 306 506 297 488 q 316 536 315 524 q 308 552 317 549 q 276 544 299 556 q 229 516 257 535 q 173 474 201 497 q 117 428 144 451 q 74 386 90 404 q 22 316 32 340 q 22 285 11 292 q 63 289 33 278 q 129 325 92 300 z "},"b":{"ha":740,"x_min":-47,"x_max":771,"o":"m 753 393 q 690 344 726 369 q 615 299 654 319 q 538 263 576 278 q 468 244 499 249 q 363 175 415 203 q 253 131 310 147 q 136 107 197 114 q 6 100 75 100 q -36 117 -25 100 q -47 153 -47 135 q -38 181 -47 171 q -15 196 -29 190 q 15 203 -1 201 q 44 207 31 204 q 130 213 88 206 q 211 231 172 219 q 285 259 250 243 q 349 292 321 275 q 435 367 417 333 q 438 417 454 400 q 380 435 422 435 q 285 410 338 435 q 194 361 238 389 q 117 310 151 333 q 60 269 83 286 q 28 253 36 253 q -6 267 10 253 q -21 299 -21 281 q -17 329 -21 319 q -7 345 -12 339 q 3 360 -1 351 q 7 388 7 368 q -1 417 7 403 q -10 446 -10 431 q 3 463 -10 453 q 32 485 15 472 q 65 511 49 497 q 92 540 82 525 q 147 624 110 572 q 231 734 183 675 q 332 853 278 793 q 442 960 386 913 q 550 1039 497 1008 q 647 1069 603 1069 q 697 1050 676 1069 q 717 1004 717 1031 q 690 928 717 972 q 619 835 663 885 q 524 733 576 785 q 420 637 471 682 q 326 556 369 592 q 257 504 282 521 q 319 515 283 510 q 392 518 356 519 q 462 507 429 517 q 515 476 494 497 q 538 419 535 454 q 517 331 540 383 q 563 342 533 331 q 626 372 593 354 q 688 410 658 390 q 733 442 718 429 q 753 447 743 450 q 767 436 763 444 q 768 415 771 428 q 753 393 765 403 m 556 925 q 546 928 560 936 q 508 901 532 921 q 452 851 483 881 q 391 788 421 821 q 335 719 361 754 q 297 656 310 685 q 367 713 329 681 q 440 780 404 744 q 506 852 475 815 q 556 925 536 889 z "},":":{"ha":369,"x_min":-14,"x_max":276,"o":"m 276 568 q 267 538 276 556 q 244 503 258 519 q 215 475 231 486 q 185 464 199 464 q 147 477 164 464 q 131 513 131 490 q 138 548 131 529 q 158 583 146 567 q 188 608 171 599 q 222 618 204 618 q 259 603 242 618 q 276 568 276 588 m 132 282 q 123 251 132 269 q 100 217 114 233 q 70 189 86 200 q 40 178 54 178 q 3 191 19 178 q -14 226 -14 204 q -6 262 -14 243 q 14 297 1 281 q 43 322 26 313 q 78 332 60 332 q 115 317 97 332 q 132 282 132 301 z "},"r":{"ha":679,"x_min":-32,"x_max":719,"o":"m 400 283 q 548 360 481 317 q 653 433 615 404 q 686 449 672 449 q 708 439 700 449 q 717 420 715 432 q 711 394 719 408 q 663 344 697 371 q 581 288 628 317 q 483 233 535 260 q 382 185 431 206 q 309 159 349 169 q 235 152 269 149 q 176 176 200 156 q 153 246 153 197 q 164 308 153 272 q 194 383 175 343 q 147 344 174 363 q 91 315 119 325 q 36 308 63 304 q -8 338 10 313 q -27 381 -22 356 q -28 429 -32 406 q -10 490 -24 458 q 23 553 4 522 q 65 608 42 583 q 113 649 88 633 q 187 664 151 672 q 233 628 222 656 q 235 586 240 608 q 194 540 231 564 q 158 519 176 529 q 124 496 140 508 q 95 467 107 483 q 78 429 83 451 q 96 406 72 406 q 156 432 119 407 q 212 482 183 451 q 271 542 240 513 q 333 591 301 571 q 397 610 364 611 q 435 592 417 608 q 453 558 453 576 q 435 529 453 551 q 392 476 417 507 q 339 408 367 444 q 292 338 311 372 q 268 272 264 290 q 293 253 272 254 q 344 263 314 253 q 400 283 375 274 z "},"£":{"ha":1132,"x_min":-181,"x_max":1135,"o":"m 543 549 q 599 635 568 585 q 665 740 629 686 q 741 846 700 793 q 826 940 782 899 q 917 1008 869 982 q 1015 1033 965 1033 q 1099 1010 1064 1033 q 1135 935 1135 986 q 1114 852 1135 900 q 1061 760 1093 804 q 990 686 1029 717 q 914 656 951 656 q 892 663 900 656 q 879 681 883 671 q 876 703 875 692 q 881 721 876 714 q 941 782 908 754 q 997 843 974 810 q 1021 894 1021 876 q 1007 917 1021 913 q 971 915 993 922 q 928 890 949 907 q 856 815 892 861 q 788 719 819 768 q 732 626 756 669 q 700 557 708 582 q 788 558 744 556 q 878 561 831 561 q 908 561 892 561 q 937 557 924 561 q 959 544 950 553 q 968 518 968 535 q 950 499 968 507 q 904 485 932 490 q 843 476 876 479 q 778 471 810 472 q 722 469 747 469 q 688 468 697 468 q 642 449 668 468 q 585 401 615 431 q 522 338 554 372 q 457 275 489 304 q 397 225 425 246 q 346 201 368 204 q 380 165 360 179 q 425 150 400 150 q 573 172 496 150 q 722 220 650 193 q 855 274 793 247 q 957 310 917 300 q 989 306 978 315 q 1001 281 1000 296 q 997 251 1003 267 q 979 226 992 235 q 918 191 956 210 q 835 153 881 172 q 740 117 790 135 q 643 85 690 99 q 529 54 586 67 q 418 41 472 42 q 315 56 364 40 q 226 110 267 71 q 147 81 188 96 q 65 52 107 65 q -18 30 24 39 q -99 21 -60 21 q -153 33 -126 21 q -181 76 -181 44 q -156 132 -181 99 q -91 201 -131 165 q -3 272 -51 236 q 92 335 46 307 q 175 381 138 364 q 231 399 213 399 q 259 390 247 399 q 278 367 271 381 q 292 339 286 354 q 303 313 297 324 q 351 340 325 324 q 400 374 376 356 q 444 413 424 392 q 478 454 464 433 q 432 455 457 456 q 381 454 407 454 q 330 456 356 454 q 282 463 304 457 q 253 481 258 467 q 251 509 247 494 q 263 535 254 524 q 276 547 272 547 q 410 547 339 544 q 543 549 481 549 m 49 171 q 83 179 60 172 q 128 197 106 186 q 169 219 151 207 q 186 243 186 231 q 176 261 186 260 q 151 255 165 263 q 118 233 136 247 q 85 206 100 219 q 59 181 69 192 q 49 171 49 171 z "},"@":{"ha":838,"x_min":-49,"x_max":760,"o":"m 353 404 q 288 338 317 368 q 230 290 260 307 q 165 272 200 272 q 78 297 129 272 q 72 219 67 257 q 94 144 78 181 q 151 88 115 97 q 231 94 188 79 q 322 142 275 110 q 412 213 368 175 q 492 285 456 250 q 549 339 528 319 q 581 362 564 353 q 618 360 599 371 q 639 315 646 344 q 603 251 632 286 q 531 178 574 215 q 444 108 488 140 q 363 51 400 75 q 310 19 325 26 q 153 -24 219 -24 q 42 8 86 -25 q -24 99 -1 40 q -48 233 -47 157 q -28 395 -49 308 q 33 569 -8 482 q 135 738 74 656 q 276 886 196 819 q 390 963 328 928 q 519 1008 453 997 q 654 1000 601 1024 q 733 927 707 976 q 760 811 760 878 q 738 673 760 744 q 674 534 717 601 q 571 417 632 467 q 511 377 538 390 q 460 363 485 364 q 410 373 436 363 q 353 404 385 383 m 458 456 q 540 517 503 482 q 602 594 576 553 q 642 681 628 636 q 656 774 656 726 q 653 822 656 797 q 641 865 650 846 q 615 897 632 885 q 567 913 597 910 q 497 904 533 915 q 428 873 461 893 q 367 826 394 853 q 324 769 340 799 q 401 769 361 779 q 472 737 442 760 q 513 681 501 714 q 501 610 524 647 q 465 535 478 569 q 458 456 453 500 m 181 378 q 291 484 243 426 q 381 604 339 542 q 392 622 386 613 q 401 642 399 632 q 402 660 404 651 q 388 675 400 669 q 350 676 365 686 q 319 650 335 665 q 265 587 288 618 q 227 522 243 556 q 200 453 211 489 q 181 378 189 418 z "},"^":{"ha":515,"x_min":93,"x_max":569,"o":"m 317 765 q 281 719 304 749 q 233 658 258 689 q 184 602 208 628 q 143 568 160 576 q 106 574 119 557 q 96 613 93 592 q 122 653 97 618 q 186 740 147 689 q 270 851 225 792 q 356 964 315 911 q 428 1056 397 1017 q 468 1108 458 1096 q 505 1141 482 1126 q 550 1139 528 1156 q 568 1110 567 1126 q 564 1078 569 1094 q 549 1045 558 1061 q 532 1017 539 1029 q 446 797 478 911 q 411 564 414 683 q 406 531 411 544 q 378 515 401 518 q 333 543 344 513 q 320 616 322 574 q 320 701 318 658 q 317 765 322 744 z "},"™":{"ha":588,"x_min":88,"x_max":685,"o":"m 379 832 q 458 876 419 849 q 531 933 497 904 q 592 985 565 963 q 636 1015 619 1008 q 672 1010 660 1024 q 675 979 685 997 q 644 938 663 958 q 611 896 626 918 q 578 847 593 868 q 553 803 564 825 q 535 757 543 781 q 521 704 526 733 q 511 690 519 696 q 492 681 503 683 q 472 680 482 678 q 458 690 463 682 q 450 721 450 706 q 455 751 450 736 q 467 783 460 767 q 479 814 474 799 q 439 798 458 807 q 401 783 419 789 q 363 777 382 778 q 324 786 343 776 q 300 738 311 763 q 274 692 289 714 q 251 673 264 678 q 229 670 239 668 q 215 681 219 672 q 215 704 210 690 q 250 788 231 742 q 293 871 269 835 q 320 890 307 892 q 344 876 333 888 q 365 851 356 865 q 379 832 374 838 m 281 922 q 259 872 274 907 q 229 801 244 838 q 199 734 214 765 q 176 693 185 703 q 159 682 169 686 q 139 678 149 678 q 123 686 129 679 q 119 707 117 693 q 153 805 131 756 q 193 903 175 854 q 163 905 181 904 q 130 909 146 906 q 102 919 114 913 q 89 939 90 925 q 99 958 88 951 q 124 968 111 965 q 178 976 144 972 q 249 985 213 981 q 320 991 286 989 q 374 993 354 993 q 394 976 396 993 q 378 951 393 960 q 330 935 358 940 q 281 922 301 929 z "},"©":{"ha":0,"x_min":-1336,"x_max":1579,"o":"m 397 101 q 509 101 442 101 q 655 99 576 101 q 817 94 733 97 q 978 83 901 90 q 1119 67 1056 76 q 1221 44 1182 57 q 1251 31 1233 40 q 1278 8 1268 21 q 1288 -18 1289 -4 q 1265 -46 1288 -32 q 1243 -47 1263 -49 q 1195 -42 1224 -46 q 1134 -35 1167 -39 q 1071 -28 1101 -32 q 1017 -20 1040 -24 q 985 -17 993 -17 q 713 -2 849 -4 q 442 -3 578 0 q 171 -12 307 -6 q -100 -25 35 -19 q -577 -56 -337 -36 q -1050 -126 -817 -76 q -1097 -137 -1078 -132 q -1135 -150 -1117 -143 q -1171 -167 -1153 -157 q -1212 -190 -1189 -176 q -1239 -201 -1222 -196 q -1272 -208 -1256 -207 q -1304 -205 -1289 -210 q -1325 -186 -1319 -200 q -1323 -141 -1336 -162 q -1282 -101 -1310 -119 q -1218 -69 -1254 -83 q -1146 -43 -1182 -54 q -1079 -25 -1110 -32 q -1033 -15 -1049 -18 q -444 60 -739 38 q 150 101 -149 83 q 274 102 213 104 q 397 101 335 100 m 1439 -15 q 1492 -20 1467 -14 q 1543 -36 1518 -26 q 1574 -60 1568 -46 q 1574 -87 1579 -74 q 1555 -109 1568 -100 q 1529 -118 1542 -118 q 1476 -110 1508 -118 q 1420 -89 1443 -103 q 1396 -56 1397 -75 q 1439 -15 1394 -37 z "},"«":{"ha":590,"x_min":17,"x_max":479,"o":"m 417 326 q 397 310 410 318 q 375 296 385 301 q 260 226 313 264 q 154 144 207 188 q 131 131 142 135 q 106 139 121 126 q 96 167 90 150 q 116 202 101 185 q 148 235 131 219 q 175 260 165 251 q 267 321 217 296 q 369 365 317 346 q 391 367 379 368 q 411 361 403 367 q 422 347 419 356 q 417 326 425 339 m 414 539 q 303 588 357 557 q 210 658 250 618 q 185 698 190 678 q 185 732 181 718 q 204 750 190 746 q 236 744 218 754 q 251 734 239 742 q 279 715 263 726 q 317 690 296 704 q 358 663 338 676 q 469 589 407 629 q 478 569 479 578 q 474 554 478 561 q 447 533 458 533 q 414 539 435 532 m 272 508 q 343 498 319 510 q 367 469 367 486 q 347 434 368 451 q 285 408 326 417 q 195 390 240 399 q 104 374 150 381 q 57 376 78 369 q 26 393 36 382 q 20 419 17 404 q 47 450 24 435 q 156 493 94 481 q 272 508 218 506 z "},"»":{"ha":633,"x_min":67,"x_max":507,"o":"m 99 547 q 119 566 106 557 q 142 582 132 575 q 260 661 206 618 q 368 753 314 704 q 391 769 381 764 q 417 760 401 774 q 426 728 432 747 q 406 688 421 708 q 374 650 392 668 q 346 622 356 632 q 251 554 303 582 q 147 504 200 526 q 126 501 138 500 q 105 508 114 503 q 93 524 96 514 q 99 547 90 533 m 132 356 q 242 307 189 338 q 336 236 296 276 q 360 197 356 217 q 360 163 365 176 q 342 144 356 149 q 310 150 328 139 q 295 159 307 151 q 266 178 283 167 q 228 204 249 190 q 186 232 207 218 q 76 306 136 265 q 67 325 67 317 q 72 340 68 333 q 99 362 88 361 q 132 356 111 363 m 251 392 q 181 401 204 389 q 156 431 157 414 q 176 466 156 449 q 239 492 197 483 q 328 510 283 501 q 419 526 374 519 q 467 524 446 531 q 497 507 488 518 q 503 481 507 496 q 476 450 500 465 q 367 407 429 419 q 251 392 306 394 z "},"±":{"ha":626,"x_min":-49,"x_max":508,"o":"m 371 549 q 394 545 381 547 q 423 541 408 543 q 451 537 438 539 q 472 531 464 535 q 500 506 492 522 q 506 476 508 490 q 490 451 503 461 q 454 443 476 442 q 397 446 426 446 q 340 449 368 446 q 333 418 338 439 q 324 373 329 397 q 313 324 318 349 q 304 282 308 300 q 292 246 301 267 q 264 225 282 225 q 233 238 243 225 q 219 269 222 250 q 218 313 217 289 q 224 361 219 338 q 232 404 228 385 q 238 435 236 424 q 171 435 201 438 q 106 431 140 433 q 58 442 76 429 q 37 472 40 454 q 47 506 33 489 q 93 529 60 522 q 178 538 133 538 q 263 542 222 539 q 275 581 267 554 q 292 635 283 607 q 310 687 301 663 q 325 718 319 711 q 349 738 335 732 q 374 741 363 743 q 394 728 386 739 q 399 696 401 717 q 385 622 393 660 q 371 549 378 585 m 382 181 q 417 166 406 178 q 428 140 428 154 q 417 111 428 125 q 383 92 406 97 q 358 90 382 92 q 299 85 335 88 q 222 78 264 82 q 144 72 181 75 q 81 67 107 69 q 50 65 54 65 q -18 78 6 65 q -45 106 -42 90 q -32 138 -49 122 q 21 161 -15 154 q 203 183 113 178 q 382 181 293 189 z "},"":{"ha":7828,"x_min":6,"x_max":7703,"o":"m 226 744 q 241 734 229 742 q 269 715 253 726 q 307 690 286 704 q 349 663 328 676 l 460 588 q 469 569 469 578 q 464 554 468 561 q 437 532 449 532 q 406 539 425 532 q 294 588 347 557 q 200 658 240 618 q 176 698 181 678 q 176 732 171 718 q 194 750 181 746 q 226 744 208 754 m 276 408 q 186 390 231 399 q 93 374 142 381 q 47 376 68 369 q 16 393 26 382 q 9 419 6 404 q 36 449 13 433 q 147 493 85 481 q 263 508 208 506 q 333 498 310 510 q 358 469 357 486 q 338 434 358 451 q 276 408 317 417 m 361 365 q 381 367 369 368 q 401 360 393 365 q 413 347 410 356 q 407 326 415 338 q 388 308 400 317 q 365 294 375 300 q 249 224 303 263 q 144 143 196 186 q 122 129 132 133 q 96 138 111 125 q 86 166 81 149 q 106 201 92 183 q 139 235 121 219 q 167 260 157 251 q 258 320 208 296 q 361 365 308 344 m 729 654 q 769 605 726 628 q 874 559 811 582 q 1013 509 938 536 q 1151 447 1088 482 q 1253 367 1214 413 q 1289 260 1293 321 q 1254 172 1285 213 q 1176 100 1224 132 q 1071 44 1129 68 q 953 4 1013 19 q 837 -17 893 -11 q 739 -21 781 -24 q 678 -8 710 -18 q 622 20 647 3 q 582 62 597 38 q 569 118 567 86 q 580 150 571 133 q 603 183 589 167 q 634 212 617 199 q 668 232 651 225 q 692 236 678 236 q 718 232 706 236 q 739 219 731 228 q 747 199 747 211 q 742 185 746 192 q 732 168 738 178 q 717 124 713 138 q 736 106 721 110 q 774 103 751 101 q 815 108 797 106 q 924 128 865 114 q 1035 162 983 142 q 1122 210 1086 182 q 1161 274 1158 238 q 1122 331 1164 306 q 1018 381 1081 357 q 882 431 956 404 q 747 489 808 457 q 645 563 685 521 q 611 663 606 606 q 663 785 615 726 q 785 894 711 843 q 949 985 858 944 q 1131 1054 1040 1026 q 1305 1095 1222 1082 q 1444 1104 1388 1108 q 1514 1090 1478 1101 q 1579 1058 1550 1079 q 1626 1008 1608 1038 q 1640 940 1644 978 q 1603 861 1638 903 q 1517 778 1569 819 q 1401 699 1465 736 q 1273 635 1336 663 q 1153 592 1210 607 q 1061 579 1097 576 q 1022 590 1036 581 q 1006 613 1008 600 q 1014 639 1004 625 q 1044 661 1024 653 q 1123 690 1076 672 q 1222 730 1169 708 q 1326 776 1274 751 q 1420 828 1378 801 q 1490 882 1463 854 q 1519 936 1517 910 q 1505 977 1522 964 q 1464 993 1488 990 q 1341 985 1414 997 q 1188 951 1268 974 q 1026 895 1107 928 q 881 824 946 863 q 774 741 817 785 q 729 654 732 697 m 2050 625 q 2040 606 2050 614 q 2021 600 2031 597 q 1943 603 1996 601 q 1835 601 1890 604 q 1731 590 1779 599 q 1668 563 1683 581 q 1601 475 1631 517 q 1547 392 1572 433 q 1496 307 1521 350 q 1442 215 1471 264 q 1456 185 1449 200 q 1464 154 1464 169 q 1450 121 1463 139 q 1420 87 1438 103 q 1383 60 1403 71 q 1350 50 1364 50 q 1315 67 1331 50 q 1303 103 1300 83 q 1334 221 1304 157 q 1403 348 1364 285 q 1485 468 1443 411 q 1556 565 1528 525 q 1502 553 1532 563 q 1446 540 1472 543 q 1402 549 1419 538 q 1388 600 1385 560 q 1421 635 1388 621 q 1497 658 1454 649 q 1583 672 1540 667 q 1644 681 1625 676 q 1678 724 1657 696 q 1727 785 1700 751 q 1785 852 1754 818 q 1843 915 1815 886 q 1894 960 1871 943 q 1933 978 1918 978 q 1960 963 1949 971 q 1971 939 1971 956 q 1946 897 1971 929 q 1889 826 1921 864 q 1826 750 1857 788 q 1782 692 1794 713 q 1871 692 1826 692 q 1960 690 1915 692 q 1992 688 1976 689 q 2019 680 2007 686 q 2040 660 2032 674 q 2050 625 2049 647 m 2251 708 q 2221 717 2236 708 q 2206 744 2206 726 q 2222 787 2206 764 q 2263 830 2239 810 q 2312 863 2286 850 q 2356 876 2338 876 q 2386 867 2371 876 q 2401 842 2401 858 q 2382 808 2401 831 q 2337 764 2363 786 q 2286 725 2311 742 q 2251 708 2261 708 m 5214 43 q 5244 30 5226 39 q 5272 8 5261 21 q 5281 -19 5282 -4 q 5258 -47 5281 -33 q 5236 -49 5256 -50 q 5188 -44 5217 -47 q 5127 -37 5160 -40 q 5064 -29 5094 -33 q 5010 -22 5033 -25 q 4978 -18 4986 -19 q 4435 -3 4704 6 q 3893 -26 4165 -12 q 3414 -58 3656 -37 q 2939 -128 3172 -78 q 2893 -140 2913 -135 q 2856 -151 2874 -144 q 2819 -168 2838 -158 q 2778 -192 2801 -178 q 2751 -203 2768 -197 q 2717 -210 2735 -208 q 2685 -207 2700 -211 q 2665 -187 2671 -203 q 2667 -142 2654 -164 q 2708 -103 2681 -121 q 2772 -70 2736 -85 q 2844 -44 2808 -56 q 2911 -26 2881 -33 q 2957 -15 2942 -18 q 3547 60 3251 38 q 4143 101 3842 83 q 4267 101 4206 104 q 4390 101 4328 99 l 4488 101 l 4488 103 q 4509 191 4490 143 q 4556 289 4528 239 q 4490 248 4524 268 q 4426 213 4457 228 q 4367 188 4394 197 q 4322 178 4340 178 q 4272 185 4293 178 q 4234 218 4249 196 q 4219 281 4219 240 q 4169 247 4199 268 q 4108 206 4140 226 q 4042 172 4075 186 q 3985 158 4010 158 q 3946 167 3964 158 q 3914 191 3928 176 q 3892 224 3900 206 q 3883 261 3883 243 l 3883 267 q 3798 212 3842 236 q 3714 172 3754 188 q 3614 156 3656 153 q 3553 186 3572 158 q 3540 268 3533 214 q 3586 404 3547 322 q 3600 459 3606 444 q 3551 443 3594 474 q 3509 411 3533 431 q 3458 371 3485 392 q 3405 329 3432 350 q 3354 294 3378 308 q 3309 279 3326 279 q 3276 279 3292 279 q 3240 294 3251 279 q 3223 331 3228 310 q 3219 378 3218 353 q 3221 424 3219 403 q 3180 401 3210 425 q 3112 340 3150 376 q 3034 260 3074 303 q 2965 181 2994 217 q 2944 165 2953 165 q 2929 165 2936 165 q 2892 186 2901 171 q 2888 226 2883 201 q 2897 260 2890 239 q 2915 308 2904 281 q 2858 274 2888 290 q 2800 242 2829 258 q 2744 203 2772 226 q 2689 154 2715 181 q 2640 99 2663 128 q 2603 43 2617 71 q 2539 -76 2575 -8 q 2458 -208 2503 -143 q 2363 -326 2414 -272 q 2254 -407 2311 -381 q 2168 -422 2203 -428 q 2115 -390 2133 -415 q 2097 -327 2097 -365 q 2115 -247 2097 -289 q 2185 -146 2139 -196 q 2288 -46 2231 -96 q 2406 54 2344 4 q 2521 156 2467 104 q 2617 263 2575 208 q 2675 376 2658 318 q 2622 333 2657 361 q 2549 278 2588 306 q 2476 229 2511 250 q 2419 208 2440 208 q 2371 234 2388 208 q 2356 292 2354 260 q 2357 299 2357 294 q 2251 237 2308 267 q 2140 183 2193 207 q 2067 158 2107 168 q 1993 151 2028 147 q 1935 176 1958 154 q 1911 246 1911 197 q 1931 337 1911 285 q 1981 436 1950 389 q 2053 517 2013 483 q 2135 550 2093 550 q 2166 538 2154 550 q 2178 508 2178 526 q 2165 487 2178 501 q 2134 451 2153 472 q 2092 401 2115 429 q 2050 338 2069 372 q 2027 272 2022 290 q 2053 253 2032 254 q 2104 262 2074 251 q 2160 282 2135 272 q 2307 360 2239 317 q 2411 433 2375 403 q 2415 436 2415 438 q 2482 528 2444 482 q 2560 610 2519 574 q 2638 669 2600 646 q 2708 692 2676 692 q 2757 672 2736 692 q 2799 638 2778 653 q 2815 642 2804 639 q 2832 646 2826 646 q 2869 637 2851 646 q 2885 603 2886 628 q 2865 542 2883 579 q 2822 463 2846 506 q 2776 376 2799 421 q 2742 292 2753 331 q 2793 319 2763 301 q 2856 354 2824 336 q 2920 390 2889 372 q 2974 421 2951 408 q 3015 495 2993 458 q 3060 565 3038 532 q 3103 623 3082 597 q 3142 664 3125 649 q 3174 679 3161 679 q 3206 668 3186 679 q 3222 652 3215 663 q 3225 621 3228 642 q 3204 581 3225 608 q 3158 524 3183 554 q 3108 464 3132 493 q 3078 418 3085 435 q 3123 452 3094 429 q 3183 498 3151 475 q 3244 538 3214 521 q 3292 553 3274 554 q 3325 528 3318 550 q 3331 475 3332 506 q 3327 413 3331 444 q 3328 364 3324 382 q 3390 408 3351 379 q 3474 470 3429 438 q 3565 533 3519 503 q 3649 583 3611 564 q 3696 597 3674 596 q 3733 588 3718 597 q 3751 558 3747 579 q 3740 506 3754 538 q 3714 447 3729 479 q 3683 383 3699 414 q 3656 299 3656 325 q 3678 268 3657 272 q 3733 278 3699 264 q 3808 314 3768 292 q 3886 363 3847 336 q 3953 413 3925 390 q 4037 502 3989 458 q 4135 581 4085 546 q 4234 638 4186 615 q 4319 663 4282 660 q 4370 641 4351 665 q 4389 579 4389 617 q 4394 558 4389 567 q 4408 542 4400 550 q 4421 525 4415 535 q 4426 501 4426 515 q 4421 482 4426 494 q 4407 454 4415 469 q 4389 422 4399 439 q 4371 392 4379 406 q 4337 301 4326 328 q 4411 307 4347 275 q 4474 339 4440 321 q 4541 376 4508 357 q 4603 411 4574 394 q 4650 438 4632 428 q 4700 506 4676 474 q 4742 565 4724 539 q 4688 553 4718 563 q 4632 540 4658 543 q 4588 549 4606 538 q 4572 600 4571 560 q 4607 635 4574 621 q 4683 658 4640 649 q 4769 672 4726 667 q 4831 681 4811 676 q 4865 724 4843 696 q 4913 785 4886 751 q 4971 852 4940 818 q 5029 915 5001 886 q 5081 960 5057 943 q 5119 978 5104 978 q 5146 963 5135 971 q 5157 939 5157 956 q 5133 897 5157 929 q 5076 826 5108 864 q 5013 750 5044 788 q 4968 692 4982 713 q 5058 692 5013 692 q 5146 690 5103 692 q 5178 688 5163 689 q 5206 680 5193 686 q 5226 660 5218 674 q 5236 625 5235 647 q 5226 606 5236 614 q 5207 600 5217 597 q 5129 603 5182 601 q 5020 601 5076 604 q 4917 590 4964 599 q 4854 563 4869 581 q 4788 475 4817 517 q 4734 392 4760 433 q 4683 307 4708 350 q 4629 215 4658 264 q 4644 185 4636 200 q 4650 154 4651 169 q 4641 128 4650 143 q 4619 99 4632 114 q 4788 94 4700 97 q 4958 84 4876 90 q 5106 67 5039 78 q 5214 43 5174 57 m 2271 -253 q 2322 -199 2294 -231 q 2377 -133 2350 -168 q 2429 -60 2404 -97 q 2472 14 2454 -22 q 2411 -39 2444 -10 q 2345 -100 2378 -68 q 2283 -164 2313 -132 q 2235 -224 2254 -196 q 2208 -272 2214 -256 q 2210 -290 2203 -287 q 2233 -283 2217 -293 q 2271 -253 2249 -274 m 2685 513 q 2705 546 2699 529 q 2708 573 2711 563 q 2693 583 2706 583 q 2657 567 2681 583 q 2615 532 2638 553 q 2569 488 2592 511 q 2528 440 2547 464 q 2497 396 2510 415 q 2480 360 2485 374 q 2481 344 2475 347 q 2503 350 2486 342 q 2547 381 2519 358 q 2619 444 2581 407 q 2685 513 2657 481 m 4275 468 q 4298 505 4289 486 q 4308 536 4307 524 q 4301 552 4310 549 q 4269 544 4292 556 q 4222 516 4250 535 q 4165 474 4194 497 q 4110 428 4136 451 q 4067 386 4083 404 q 4014 315 4025 340 q 4014 283 4003 290 q 4054 288 4025 276 q 4121 324 4083 299 q 4201 387 4160 350 q 4275 468 4242 424 m 5536 -37 q 5568 -60 5563 -46 q 5568 -87 5574 -74 q 5549 -110 5563 -100 q 5524 -119 5536 -119 q 5490 -116 5510 -119 q 5449 -106 5469 -112 q 5413 -90 5429 -99 q 5392 -69 5397 -81 q 5394 -44 5386 -58 q 5432 -15 5403 -31 q 5486 -20 5460 -14 q 5536 -37 5513 -26 m 7182 446 q 7208 448 7203 453 q 7217 435 7213 443 q 7222 411 7221 424 q 7207 389 7222 399 q 7134 342 7179 368 q 7036 288 7089 315 q 6928 235 6983 261 q 6822 190 6872 210 q 6731 164 6782 175 q 6633 158 6679 153 q 6556 192 6588 164 q 6525 282 6525 219 l 6525 301 q 6417 239 6476 269 q 6306 183 6358 208 q 6233 158 6272 168 q 6158 151 6193 147 q 6099 176 6122 154 q 6075 246 6075 197 q 6086 308 6075 272 q 6117 383 6097 343 q 6069 344 6096 363 q 6014 315 6042 325 q 5960 308 5986 304 q 5914 338 5933 313 q 5909 345 5911 342 q 5904 356 5907 349 q 5842 310 5876 335 q 5770 263 5807 286 q 5697 219 5733 239 q 5632 188 5661 199 q 5533 172 5567 161 q 5490 216 5500 182 q 5487 300 5479 250 q 5511 403 5494 350 q 5465 369 5494 392 q 5398 318 5435 346 q 5322 261 5361 290 q 5245 208 5282 232 q 5178 168 5208 183 q 5132 153 5149 153 q 5102 160 5117 153 q 5076 181 5088 168 q 5059 208 5065 193 q 5053 240 5053 224 q 5072 294 5053 257 q 5123 378 5092 332 q 5192 472 5154 424 q 5266 561 5229 521 q 5334 627 5303 601 q 5382 653 5365 653 q 5409 644 5399 653 q 5425 625 5419 636 q 5431 601 5431 614 q 5425 579 5431 589 q 5382 526 5410 557 q 5324 462 5354 494 q 5265 398 5293 429 q 5219 344 5236 367 q 5203 313 5207 325 q 5208 296 5200 300 q 5235 299 5215 292 q 5286 326 5254 306 q 5378 394 5331 356 q 5474 472 5426 432 q 5568 552 5522 513 q 5654 624 5614 592 q 5691 645 5675 640 q 5728 639 5707 650 q 5744 627 5738 635 q 5751 603 5751 619 q 5739 572 5751 594 q 5708 522 5726 550 q 5668 462 5689 493 q 5631 401 5647 431 q 5591 290 5586 322 q 5656 289 5596 257 q 5708 320 5678 300 q 5772 363 5739 340 q 5838 406 5806 385 q 5897 444 5871 428 q 5918 503 5904 472 q 5951 561 5932 533 q 5991 612 5969 589 q 6035 649 6013 635 q 6110 663 6074 672 q 6156 626 6146 654 q 6158 585 6163 607 q 6117 540 6153 563 q 6081 518 6100 529 q 6047 494 6063 507 q 6018 467 6031 482 q 6000 429 6006 451 q 6019 406 5994 404 q 6079 431 6043 407 q 6135 481 6107 450 q 6194 542 6164 513 q 6256 591 6224 571 q 6321 610 6288 611 q 6358 592 6340 607 q 6376 558 6376 576 q 6358 529 6376 551 q 6315 476 6340 507 q 6263 408 6290 444 q 6215 338 6235 372 q 6192 272 6188 290 q 6217 253 6196 254 q 6267 262 6238 251 q 6322 282 6297 272 q 6472 360 6404 317 q 6576 433 6539 403 q 6583 438 6579 436 q 6589 440 6586 440 q 6674 533 6624 489 q 6778 610 6724 576 q 6886 663 6832 643 q 6983 683 6940 683 q 7022 679 7003 683 q 7056 665 7040 675 q 7081 640 7071 656 q 7090 601 7090 624 q 7048 522 7090 564 q 6948 445 7006 481 q 6831 387 6890 410 q 6739 364 6772 364 q 6703 369 6721 364 q 6671 385 6686 375 q 6664 374 6665 376 q 6630 301 6629 326 q 6653 265 6631 275 q 6710 256 6675 254 q 6778 267 6744 258 q 6882 302 6829 279 q 6987 351 6935 325 q 7088 403 7039 378 q 7182 446 7138 428 m 6872 558 q 6822 523 6849 544 q 6768 474 6796 501 q 6896 529 6850 499 q 6927 555 6921 544 q 6928 569 6933 565 q 6907 572 6922 574 q 6872 558 6892 569 m 7342 504 q 7321 501 7333 500 q 7299 508 7308 503 q 7288 524 7290 514 q 7294 547 7285 533 q 7314 566 7301 557 q 7338 582 7326 575 q 7456 662 7401 618 q 7564 753 7510 706 q 7586 769 7576 764 q 7611 760 7596 774 q 7622 728 7626 747 q 7602 688 7617 708 q 7569 650 7588 668 q 7542 622 7551 632 q 7447 553 7499 582 q 7342 504 7396 525 m 7615 525 q 7661 524 7640 529 q 7692 506 7682 518 q 7699 479 7703 494 q 7672 449 7696 464 q 7563 406 7625 419 q 7447 392 7501 393 q 7376 401 7400 389 q 7351 431 7353 414 q 7371 465 7350 447 q 7433 492 7392 483 q 7524 510 7479 501 q 7615 525 7569 519 m 7328 356 q 7438 307 7385 338 q 7532 236 7492 276 q 7556 197 7551 217 q 7556 163 7561 176 q 7538 144 7551 149 q 7507 150 7524 139 q 7491 159 7503 151 q 7463 178 7479 167 q 7425 203 7446 189 q 7383 231 7404 217 q 7272 304 7333 264 q 7263 324 7263 315 q 7267 339 7263 332 q 7294 361 7282 360 q 7328 356 7306 363 z "},"”":{"ha":572,"x_min":147,"x_max":468,"o":"m 307 844 q 248 760 271 790 q 211 717 225 731 q 191 699 197 703 q 181 696 185 696 q 156 701 165 693 q 147 724 147 708 q 154 749 147 731 q 172 789 161 767 q 197 834 183 811 q 221 874 210 857 q 251 897 233 893 q 283 893 268 900 q 305 872 297 886 q 307 844 313 858 m 463 844 q 403 760 426 790 q 367 717 381 731 q 347 699 353 703 q 336 696 340 696 q 312 701 321 693 q 303 724 303 708 q 310 749 303 731 q 328 789 317 767 q 352 834 339 811 q 376 874 365 857 q 406 897 389 893 q 438 893 424 900 q 460 872 453 886 q 463 844 468 858 z "},"“":{"ha":572,"x_min":157,"x_max":479,"o":"m 319 775 q 378 859 356 829 q 415 903 401 889 q 435 920 429 917 q 446 924 442 924 q 470 919 461 926 q 479 896 479 911 q 472 871 479 889 q 454 831 465 853 q 430 785 443 808 q 406 746 417 763 q 376 723 393 726 q 344 726 358 719 q 321 747 329 733 q 319 775 313 760 m 164 775 q 223 859 200 829 q 260 903 246 889 q 280 920 274 917 q 290 924 286 924 q 315 919 306 926 q 324 896 324 911 q 317 871 324 889 q 299 831 310 853 q 274 785 288 808 q 250 746 261 763 q 220 723 238 726 q 188 726 203 719 q 165 747 174 733 q 164 775 157 760 z "},"’":{"ha":401,"x_min":147,"x_max":313,"o":"m 307 844 q 248 760 271 790 q 211 717 225 731 q 191 699 197 703 q 181 696 185 696 q 156 701 165 693 q 147 724 147 708 q 154 749 147 731 q 172 789 161 767 q 197 834 183 811 q 221 874 210 857 q 251 897 233 893 q 283 893 268 900 q 305 872 297 886 q 307 844 313 858 z "},"‘":{"ha":401,"x_min":157,"x_max":324,"o":"m 164 775 q 223 859 200 829 q 260 903 246 889 q 280 920 274 917 q 290 924 286 924 q 315 919 306 926 q 324 896 324 911 q 317 871 324 889 q 299 831 310 853 q 274 785 288 808 q 250 746 261 763 q 220 723 238 726 q 188 726 203 719 q 165 747 174 733 q 164 775 157 760 z "}}}
